SplineFontDB: 3.0
FontName: Monda-BoldItalic
FullName: Monda Bold Italic
FamilyName: Monda
Weight: Bold
Copyright: Digitized data Copyright (c) 2011-2013, vernon adams.
Version: 2.0
ItalicAngle: -10
UnderlinePosition: 0
UnderlineWidth: 0
Ascent: 1638
Descent: 410
UFOAscent: 2030
UFODescent: -675
LayerCount: 2
Layer: 0 0 "Back"  1
Layer: 1 0 "Fore"  0
FSType: 0
OS2Version: 0
OS2_WeightWidthSlopeOnly: 0
OS2_UseTypoMetrics: 1
CreationTime: 1392007570
ModificationTime: 1392007679
PfmFamily: 17
TTFWeight: 700
TTFWidth: 5
LineGap: 0
VLineGap: 0
OS2TypoAscent: 1999
OS2TypoAOffset: 0
OS2TypoDescent: -572
OS2TypoDOffset: 0
OS2TypoLinegap: 0
OS2WinAscent: 1999
OS2WinAOffset: 0
OS2WinDescent: 572
OS2WinDOffset: 0
HheadAscent: 1999
HheadAOffset: 0
HheadDescent: -572
HheadDOffset: 0
OS2Vendor: 'NeWT'
Lookup: 4 0 1 "ligaStandardLigatureslookup0"  {"ligaStandardLigatureslookup0 subtable"  } ['liga' ('latn' <'dflt' > 'grek' <'dflt' > 'DFLT' <'dflt' > ) ]
Lookup: 6 0 0 "loclLocalizedFormsinLatinlookup"  {"loclLocalizedFormsinLatinlookup contextual 0"  "loclLocalizedFormsinLatinlookup contextual 1"  } ['locl' ('latn' <'dflt' 'CAT ' > ) ]
Lookup: 4 0 0 "Ligature Substitution lookup 2"  {"Ligature Substitution lookup 2 subtable"  } []
Lookup: 4 0 0 "Ligature Substitution lookup 3"  {"Ligature Substitution lookup 3 subtable"  } []
Lookup: 1 0 0 "sub_single_locllatn_0"  {"sub_single_locllatn_0 subtable"  } ['locl' ('latn' <'dflt' 'ROM ' > ) ]
Lookup: 1 0 0 "sub_single_locllatn_2"  {"sub_single_locllatn_2 subtable"  } ['locl' ('latn' <'dflt' 'MOL ' > ) ]
Lookup: 1 0 0 "sub_single_locllatn_4"  {"sub_single_locllatn_4 subtable"  } ['locl' ('latn' <'dflt' 'KAZ ' > ) ]
Lookup: 1 0 0 "sub_single_locllatn_6"  {"sub_single_locllatn_6 subtable"  } ['locl' ('latn' <'dflt' 'TAT ' > ) ]
Lookup: 1 0 0 "sub_single_locllatn_8"  {"sub_single_locllatn_8 subtable"  } ['locl' ('latn' <'dflt' 'TRK ' > ) ]

StartChar: A
Encoding: 65 65 0
Width: 1540
VWidth: 0
Flags: HW
PickledData: "(dp1
S'org.robofab.postScriptHintData'
p2
(dp3
s."
AnchorPoint: "ogonek" 1158 0 basechar 0
AnchorPoint: "top" 911 1476 basechar 0
LayerCount: 2
Fore
SplineSet
-46 0 m 257
 261 0 l 257
 396 281 l 257
 980 281 l 257
 1014 0 l 257
 1326 0 l 257
 1094 1476 l 257
 700 1476 l 257
 -46 0 l 257
490 479 m 257
 863 1245 l 257
 958 479 l 257
 490 479 l 257
EndSplineSet
Substitution2: "Single Substitution lookup 14 subtable" ordfeminine
EndChar

StartChar: AE
Encoding: 198 198 1
Width: 1834
VWidth: 0
Flags: HW
PickledData: "(dp1
S'org.robofab.postScriptHintData'
p2
(dp3
s."
AnchorPoint: "top" 1226 1476 basechar 0
LayerCount: 2
Fore
SplineSet
-47 0 m 257
 263 0 l 257
 391 281 l 257
 812 281 l 257
 763 0 l 257
 1580 0 l 257
 1620 227 l 257
 1083 227 l 257
 1157 645 l 257
 1614 645 l 257
 1651 858 l 257
 1194 858 l 257
 1263 1249 l 257
 1790 1249 l 257
 1830 1477 l 257
 669 1477 l 257
 -47 0 l 257
481 477 m 257
 847 1249 l 257
 983 1249 l 257
 847 477 l 257
 481 477 l 257
EndSplineSet
EndChar

StartChar: B
Encoding: 66 66 18
Width: 1492
VWidth: 0
Flags: HW
PickledData: "(dp1
S'org.robofab.postScriptHintData'
p2
(dp3
s."
AnchorPoint: "top" 879 1476 basechar 0
LayerCount: 2
Fore
SplineSet
82 0 m 257
 722 0 l 258
 1080 0 1259 133 1311 428 c 257
 1320 475 1328 531 1328 575 c 0
 1328 699 1278 783 1126 804 c 257
 1287 843 1337 938 1365 1088 c 256
 1372 1129 1376 1167 1376 1201 c 0
 1376 1388 1259 1476 910 1476 c 258
 342 1476 l 257
 82 0 l 257
416 208 m 257
 503 703 l 257
 821 703 l 258
 988 703 1031 646 1031 555 c 0
 1031 525 1026 491 1020 455 c 256
 984 250 935 208 704 208 c 258
 416 208 l 257
534 882 m 257
 603 1273 l 257
 855 1273 l 258
 1017 1273 1070 1252 1070 1163 c 0
 1070 1141 1066 1115 1061 1085 c 256
 1038 952 1014 882 841 882 c 258
 534 882 l 257
EndSplineSet
EndChar

StartChar: C
Encoding: 67 67 20
Width: 1509
VWidth: 0
Flags: HW
PickledData: "(dp1
S'org.robofab.postScriptHintData'
p2
(dp3
s."
AnchorPoint: "bot" 635 0 basechar 0
AnchorPoint: "top" 918 1476 basechar 0
LayerCount: 2
Fore
SplineSet
653 -26 m 256
 1165 -26 1273 190 1325 480 c 257
 1329 507 l 257
 1038 507 l 257
 1030 460 l 257
 993 250 920 207 695 207 c 256
 504 207 408 241 408 379 c 0
 408 401 410 426 415 454 c 258
 513 1012 l 258
 549 1215 662 1268 882 1268 c 256
 1065 1268 1137 1232 1137 1106 c 0
 1137 1078 1133 1044 1126 1006 c 258
 1113 931 l 257
 1410 965 l 257
 1421 1028 1431 1096 1431 1154 c 0
 1431 1361 1324 1501 923 1501 c 256
 394 1501 263 1275 210 977 c 258
 123 484 l 258
 114 431 108 380 108 332 c 0
 108 120 223 -26 653 -26 c 256
EndSplineSet
EndChar

StartChar: D
Encoding: 68 68 27
Width: 1564
VWidth: 0
Flags: HW
PickledData: "(dp1
S'org.robofab.postScriptHintData'
p2
(dp3
s."
AnchorPoint: "mid" 383 781 basechar 0
AnchorPoint: "top" 909 1476 basechar 0
LayerCount: 2
Fore
SplineSet
420 231 m 257
 598 1245 l 257
 916 1245 l 258
 1088 1245 1152 1186 1152 1073 c 0
 1152 1051 1150 1026 1145 1000 c 258
 1052 470 l 258
 1023 306 947 231 738 231 c 258
 420 231 l 257
82 0 m 257
 723 0 l 258
 1138 0 1303 213 1355 508 c 258
 1435 961 l 258
 1444 1011 1449 1059 1449 1105 c 0
 1449 1322 1336 1476 982 1476 c 258
 342 1476 l 257
 82 0 l 257
EndSplineSet
EndChar

StartChar: E
Encoding: 69 69 35
Width: 1316
VWidth: 0
Flags: HW
PickledData: "(dp1
S'org.robofab.postScriptHintData'
p2
(dp3
s."
AnchorPoint: "bot" 597 0 basechar 0
AnchorPoint: "ogonek" 762 0 basechar 0
AnchorPoint: "top" 873 1476 basechar 0
LayerCount: 2
Fore
SplineSet
82 0 m 257
 1060 0 l 257
 1099 224 l 257
 417 224 l 257
 492 646 l 257
 1087 646 l 257
 1125 860 l 257
 530 860 l 257
 599 1252 l 257
 1270 1252 l 257
 1309 1476 l 257
 342 1476 l 257
 82 0 l 257
EndSplineSet
EndChar

StartChar: Eng
Encoding: 330 330 46
Width: 1640
VWidth: 0
Flags: HW
PickledData: "(dp1
S'org.robofab.postScriptHintData'
p2
(dp3
s."
LayerCount: 2
Fore
SplineSet
737 -382 m 257
 1179 -382 1315 -219 1382 162 c 258
 1614 1477 l 257
 1347 1477 l 257
 1185 560 l 257
 579 1477 l 257
 354 1477 l 257
 93 0 l 257
 361 0 l 257
 537 996 l 257
 1107 153 l 257
 1101 117 l 257
 1052 -159 979 -171 743 -192 c 257
 737 -382 l 257
EndSplineSet
EndChar

StartChar: Euro
Encoding: 8364 8364 50
Width: 1490
VWidth: 0
Flags: HW
PickledData: "(dp1
S'org.robofab.postScriptHintData'
p2
(dp3
s."
LayerCount: 2
Fore
SplineSet
806 838 m 257
 829 972 l 257
 87 972 l 257
 64 838 l 257
 806 838 l 257
752 536 m 257
 776 670 l 257
 34 670 l 257
 10 536 l 257
 752 536 l 257
EndSplineSet
Refer: 20 67 N 1 0 0 1 0 0 2
EndChar

StartChar: F
Encoding: 70 70 51
Width: 1195
VWidth: 0
Flags: HW
PickledData: "(dp1
S'org.robofab.postScriptHintData'
p2
(dp3
s."
AnchorPoint: "top" 828 1476 basechar 0
LayerCount: 2
Fore
SplineSet
82 0 m 257
 379 0 l 257
 491 634 l 257
 1046 634 l 257
 1083 847 l 257
 528 847 l 257
 599 1249 l 257
 1195 1249 l 257
 1235 1476 l 257
 342 1476 l 257
 82 0 l 257
EndSplineSet
EndChar

StartChar: G
Encoding: 71 71 53
Width: 1623
VWidth: 0
Flags: HW
PickledData: "(dp1
S'org.robofab.postScriptHintData'
p2
(dp3
s."
AnchorPoint: "bot" 638 0 basechar 0
AnchorPoint: "top" 953 1476 basechar 0
LayerCount: 2
Fore
SplineSet
686 -26 m 256
 1005 -26 1100 123 1123 170 c 257
 1140 0 l 257
 1297 0 l 257
 1430 757 l 257
 864 757 l 257
 830 562 l 257
 1128 562 l 257
 1109 454 l 258
 1073 252 952 207 727 207 c 256
 530 207 410 243 410 391 c 0
 410 410 412 431 416 454 c 258
 514 1012 l 258
 550 1215 695 1268 915 1268 c 256
 1104 1268 1192 1232 1192 1099 c 0
 1192 1076 1189 1050 1184 1021 c 258
 1174 962 l 257
 1469 984 l 257
 1474 1007 l 257
 1483 1058 1488 1106 1488 1152 c 0
 1488 1359 1376 1501 956 1501 c 256
 427 1501 263 1275 210 977 c 258
 123 484 l 258
 115 438 110 395 110 353 c 0
 110 130 243 -26 686 -26 c 256
EndSplineSet
EndChar

StartChar: H
Encoding: 72 72 60
Width: 1668
VWidth: 0
Flags: HW
PickledData: "(dp1
S'org.robofab.postScriptHintData'
p2
(dp3
s."
AnchorPoint: "top" 977 1476 basechar 0
LayerCount: 2
Fore
SplineSet
82 0 m 257
 380 0 l 257
 488 615 l 257
 1136 615 l 257
 1028 0 l 257
 1326 0 l 257
 1586 1476 l 257
 1288 1476 l 257
 1177 848 l 257
 529 848 l 257
 640 1476 l 257
 342 1476 l 257
 82 0 l 257
EndSplineSet
EndChar

StartChar: Hbar
Encoding: 294 294 61
Width: 1624
VWidth: 0
Flags: HW
PickledData: "(dp1
S'org.robofab.postScriptHintData'
p2
(dp3
s."
LayerCount: 2
Fore
SplineSet
153 1132 m 257
 1609 1132 l 257
 1628 1236 l 257
 172 1236 l 257
 153 1132 l 257
EndSplineSet
Refer: 60 72 N 1 0 0 1 0 0 2
EndChar

StartChar: I
Encoding: 73 73 63
Width: 1148
VWidth: 0
Flags: HW
PickledData: "(dp1
S'org.robofab.postScriptHintData'
p2
(dp3
s."
AnchorPoint: "ogonek" 453 0 basechar 0
AnchorPoint: "top" 726 1476 basechar 0
LayerCount: 2
Fore
SplineSet
28 0 m 257
 860 0 l 257
 899 222 l 257
 632 222 l 257
 814 1255 l 257
 1081 1255 l 257
 1120 1476 l 257
 288 1476 l 257
 249 1255 l 257
 518 1255 l 257
 336 222 l 257
 67 222 l 257
 28 0 l 257
EndSplineSet
EndChar

StartChar: J
Encoding: 74 74 77
Width: 1222
VWidth: 0
Flags: HW
PickledData: "(dp1
S'org.robofab.postScriptHintData'
p2
(dp3
s."
AnchorPoint: "top" 769 1476 basechar 0
LayerCount: 2
Fore
SplineSet
372 -25 m 256
 703 -25 932 138 982 422 c 258
 1168 1476 l 257
 363 1476 l 257
 323 1250 l 257
 831 1250 l 257
 689 441 l 258
 666 313 580 209 394 209 c 256
 290 209 151 242 62 287 c 257
 -46 67 l 257
 73 6 228 -25 372 -25 c 256
EndSplineSet
EndChar

StartChar: K
Encoding: 75 75 79
Width: 1470
VWidth: 0
Flags: HW
PickledData: "(dp1
S'org.robofab.postScriptHintData'
p2
(dp3
s."
AnchorPoint: "bot" 652 0 basechar 0
AnchorPoint: "top" 886 1476 basechar 0
LayerCount: 2
Fore
SplineSet
82 0 m 257
 379 0 l 257
 474 541 l 257
 638 679 l 257
 983 0 l 257
 1318 0 l 257
 906 804 l 257
 1541 1476 l 257
 1213 1476 l 257
 513 760 l 257
 639 1476 l 257
 342 1476 l 257
 82 0 l 257
EndSplineSet
EndChar

StartChar: L
Encoding: 76 76 82
Width: 1194
VWidth: 0
Flags: HW
PickledData: "(dp1
S'org.robofab.postScriptHintData'
p2
(dp3
s."
AnchorPoint: "mid" 438 811 basechar 0
AnchorPoint: "bot" 527 0 basechar 0
AnchorPoint: "top" 574 1476 basechar 0
LayerCount: 2
Fore
SplineSet
82 0 m 257
 996 0 l 257
 1037 232 l 257
 420 232 l 257
 639 1476 l 257
 342 1476 l 257
 82 0 l 257
EndSplineSet
EndChar

StartChar: Lslash
Encoding: 321 321 87
Width: 1172
VWidth: 0
Flags: HW
PickledData: "(dp1
S'org.robofab.postScriptHintData'
p2
(dp3
s."
LayerCount: 2
Fore
SplineSet
-7 560 m 257
 816 871 l 257
 856 1094 l 257
 32 783 l 257
 -7 560 l 257
EndSplineSet
Refer: 82 76 N 1 0 0 1 0 0 2
EndChar

StartChar: M
Encoding: 77 77 88
Width: 1918
VWidth: 0
Flags: HW
PickledData: "(dp1
S'org.robofab.postScriptHintData'
p2
(dp3
s."
AnchorPoint: "top" 1114 1476 basechar 0
LayerCount: 2
Fore
SplineSet
82 0 m 257
 360 0 l 257
 552 1087 l 257
 806 429 l 257
 1005 429 l 257
 1490 1091 l 257
 1298 0 l 257
 1576 0 l 257
 1836 1476 l 257
 1503 1476 l 257
 963 761 l 257
 669 1476 l 257
 342 1476 l 257
 82 0 l 257
EndSplineSet
EndChar

StartChar: N
Encoding: 78 78 90
Width: 1678
VWidth: 0
Flags: HW
PickledData: "(dp1
S'org.robofab.postScriptHintData'
p2
(dp3
s."
AnchorPoint: "bot" 772 0 basechar 0
AnchorPoint: "top" 994 1476 basechar 0
LayerCount: 2
Fore
SplineSet
82 0 m 257
 349 0 l 257
 524 996 l 257
 1113 0 l 257
 1336 0 l 257
 1596 1476 l 257
 1332 1476 l 257
 1154 464 l 257
 565 1476 l 257
 342 1476 l 257
 82 0 l 257
EndSplineSet
EndChar

StartChar: O
Encoding: 79 79 96
Width: 1622
VWidth: 0
Flags: HW
PickledData: "(dp1
S'org.robofab.postScriptHintData'
p2
(dp3
s."
AnchorPoint: "ogonek" 753 0 basechar 0
AnchorPoint: "top" 952 1476 basechar 0
LayerCount: 2
Fore
SplineSet
728 207 m 256
 531 207 412 253 412 405 c 0
 412 424 414 445 418 468 c 258
 513 1003 l 258
 548 1205 696 1268 916 1268 c 256
 1109 1268 1210 1217 1210 1074 c 0
 1210 1052 1208 1029 1203 1003 c 258
 1108 468 l 258
 1073 266 952 207 728 207 c 256
687 -26 m 256
 1195 -26 1364 227 1415 517 c 258
 1491 948 l 258
 1500 999 1505 1049 1505 1096 c 0
 1505 1326 1380 1501 957 1501 c 257
 424 1501 260 1262 208 963 c 257
 126 501 l 258
 118 454 113 408 113 365 c 0
 113 140 242 -26 687 -26 c 256
EndSplineSet
Substitution2: "Single Substitution lookup 15 subtable" ordmasculine
EndChar

StartChar: OE
Encoding: 338 338 97
Width: 1633
VWidth: 0
Flags: HW
PickledData: "(dp1
S'org.robofab.postScriptHintData'
p2
(dp3
s."
LayerCount: 2
Fore
SplineSet
587 0 m 258
 1377 0 l 257
 1410 190 l 257
 1059 190 l 257
 1143 665 l 257
 1409 665 l 257
 1443 858 l 257
 1177 858 l 257
 1253 1287 l 257
 1602 1287 l 257
 1635 1476 l 257
 847 1476 l 257
 394 1475 250 1247 199 958 c 258
 119 506 l 258
 110 453 104 403 104 356 c 0
 104 142 217 0 587 0 c 258
618 191 m 258
 433 191 372 270 372 379 c 0
 372 400 374 421 378 444 c 258
 480 1022 l 258
 505 1165 590 1279 808 1279 c 258
 981 1279 l 257
 790 191 l 257
 618 191 l 258
EndSplineSet
EndChar

StartChar: Oslash
Encoding: 216 216 110
Width: 1606
VWidth: 0
Flags: HW
PickledData: "(dp1
S'org.robofab.postScriptHintData'
p2
(dp3
s."
LayerCount: 2
Fore
SplineSet
335 -217 m 257
 1392 1675 l 257
 1309 1698 l 257
 252 -194 l 257
 335 -217 l 257
EndSplineSet
Refer: 96 79 N 1 0 0 1 0 0 2
EndChar

StartChar: P
Encoding: 80 80 113
Width: 1408
VWidth: 0
Flags: HW
PickledData: "(dp1
S'org.robofab.postScriptHintData'
p2
(dp3
s."
AnchorPoint: "top" 858 1476 basechar 0
LayerCount: 2
Fore
SplineSet
82 0 m 257
 379 0 l 257
 469 509 l 257
 722 509 l 258
 1108 509 1259 663 1319 1005 c 256
 1328 1056 1333 1104 1333 1146 c 0
 1333 1377 1196 1476 921 1476 c 258
 342 1476 l 257
 82 0 l 257
507 726 m 257
 602 1265 l 257
 912 1265 l 258
 1015 1265 1050 1200 1050 1104 c 0
 1050 1070 1045 1031 1038 990 c 256
 1007 813 957 726 807 726 c 258
 507 726 l 257
EndSplineSet
EndChar

StartChar: Q
Encoding: 81 81 115
Width: 1622
VWidth: 0
Flags: HW
PickledData: "(dp1
S'org.robofab.postScriptHintData'
p2
(dp3
s."
LayerCount: 2
Fore
SplineSet
839 -534 m 257
 1047 -426 l 257
 873 -19 l 257
 1272 25 1414 256 1460 517 c 258
 1536 948 l 258
 1545 999 1550 1048 1550 1095 c 0
 1550 1326 1425 1501 1001 1501 c 256
 468 1501 305 1262 253 963 c 257
 171 501 l 258
 163 454 158 408 158 364 c 0
 158 162 262 8 607 -21 c 257
 839 -534 l 257
773 207 m 256
 577 207 457 253 457 404 c 0
 457 424 459 445 463 468 c 258
 558 1003 l 258
 593 1205 740 1268 960 1268 c 256
 1153 1268 1255 1218 1255 1074 c 0
 1255 1053 1253 1029 1248 1003 c 258
 1153 468 l 258
 1118 266 997 207 773 207 c 256
EndSplineSet
EndChar

StartChar: R
Encoding: 82 82 116
Width: 1524
VWidth: 0
Flags: HW
PickledData: "(dp1
S'org.robofab.postScriptHintData'
p2
(dp3
s."
AnchorPoint: "bot" 673 0 basechar 0
AnchorPoint: "top" 848 1476 basechar 0
LayerCount: 2
Fore
SplineSet
82 0 m 257
 379 0 l 257
 482 583 l 257
 816 583 l 257
 972 0 l 257
 1280 0 l 257
 1105 626 l 257
 1298 699 1362 853 1394 1035 c 256
 1402 1081 1407 1125 1407 1165 c 0
 1407 1356 1303 1476 979 1476 c 258
 342 1476 l 257
 82 0 l 257
519 795 m 257
 602 1265 l 257
 979 1265 l 258
 1087 1265 1117 1198 1117 1115 c 0
 1117 1085 1114 1054 1108 1022 c 256
 1086 896 1036 795 884 795 c 258
 519 795 l 257
EndSplineSet
EndChar

StartChar: S
Encoding: 83 83 122
Width: 1281
VWidth: 0
Flags: HW
PickledData: "(dp1
S'org.robofab.postScriptHintData'
p2
(dp3
s."
AnchorPoint: "bot" 572 0 basechar 0
AnchorPoint: "top" 800 1476 basechar 0
LayerCount: 2
Fore
SplineSet
784 1501 m 256
 459 1501 189 1338 189 986 c 0
 189 848 249 738 432 681 c 258
 671 607 l 258
 810 564 845 514 845 452 c 0
 845 439 843 426 841 412 c 256
 819 287 766 207 587 207 c 256
 404 207 252 265 149 325 c 257
 9 108 l 257
 142 25 352 -26 553 -26 c 256
 890 -26 1069 172 1113 422 c 256
 1120 462 1124 499 1124 533 c 0
 1124 695 1043 787 888 837 c 258
 650 912 l 258
 531 949 488 989 488 1061 c 0
 488 1217 596 1268 769 1268 c 256
 913 1268 1036 1229 1136 1177 c 257
 1257 1386 l 257
 1135 1465 979 1501 784 1501 c 256
EndSplineSet
EndChar

StartChar: Sigma
Encoding: 931 931 130
Width: 1196
VWidth: 0
Flags: HW
PickledData: "(dp1
S'org.robofab.postScriptHintData'
p2
(dp3
s."
LayerCount: 2
Fore
SplineSet
960 0 m 257
 1000 226 l 257
 356 226 l 257
 872 734 l 257
 886 812 l 257
 540 1252 l 257
 1181 1252 l 257
 1220 1476 l 257
 222 1476 l 257
 190 1291 l 257
 577 761 l 257
 -4 191 l 257
 -38 0 l 257
 960 0 l 257
EndSplineSet
EndChar

StartChar: T
Encoding: 84 84 131
Width: 1194
VWidth: 0
Flags: HW
PickledData: "(dp1
S'org.robofab.postScriptHintData'
p2
(dp3
s."
AnchorPoint: "mid" 607 762 basechar 0
AnchorPoint: "bot" 445 0 basechar 0
AnchorPoint: "top" 731 1476 basechar 0
LayerCount: 2
Fore
SplineSet
319 0 m 257
 615 0 l 257
 835 1250 l 257
 1246 1250 l 257
 1286 1476 l 257
 168 1476 l 257
 128 1250 l 257
 539 1250 l 257
 319 0 l 257
EndSplineSet
EndChar

StartChar: Thorn
Encoding: 222 222 136
Width: 1362
VWidth: 0
Flags: HW
PickledData: "(dp1
S'org.robofab.postScriptHintData'
p2
(dp3
s."
LayerCount: 2
Fore
SplineSet
86 0 m 257
 383 0 l 257
 446 356 l 257
 711 356 l 258
 1097 356 1225 469 1285 811 c 256
 1294 864 1299 911 1299 953 c 0
 1299 1172 1170 1240 895 1240 c 258
 602 1240 l 257
 643 1476 l 257
 346 1476 l 257
 86 0 l 257
483 567 m 257
 565 1033 l 257
 886 1033 l 258
 990 1033 1026 988 1026 902 c 0
 1026 872 1021 837 1014 797 c 256
 983 619 945 567 795 567 c 258
 483 567 l 257
EndSplineSet
EndChar

StartChar: U
Encoding: 85 85 137
Width: 1606
VWidth: 0
Flags: HW
PickledData: "(dp1
S'org.robofab.postScriptHintData'
p2
(dp3
s."
AnchorPoint: "ogonek" 761 0 basechar 0
AnchorPoint: "top" 957 1476 basechar 0
LayerCount: 2
Fore
SplineSet
679 -26 m 256
 1177 -26 1321 199 1371 480 c 258
 1547 1477 l 257
 1250 1477 l 257
 1069 455 l 258
 1035 263 929 207 721 207 c 256
 541 207 435 248 435 390 c 0
 435 410 437 431 441 455 c 258
 622 1477 l 257
 325 1477 l 257
 147 468 l 258
 139 422 134 377 134 335 c 0
 134 122 257 -26 679 -26 c 256
EndSplineSet
EndChar

StartChar: V
Encoding: 86 86 151
Width: 1484
VWidth: 0
Flags: HW
PickledData: "(dp1
S'org.robofab.postScriptHintData'
p2
(dp3
s."
LayerCount: 2
Fore
SplineSet
434 0 m 257
 794 0 l 257
 1574 1476 l 257
 1259 1476 l 257
 668 287 l 257
 484 1476 l 257
 170 1476 l 257
 434 0 l 257
EndSplineSet
EndChar

StartChar: W
Encoding: 87 87 152
Width: 2014
VWidth: 0
Flags: HW
PickledData: "(dp1
S'org.robofab.postScriptHintData'
p2
(dp3
s."
AnchorPoint: "top" 1126 1476 basechar 0
LayerCount: 2
Fore
SplineSet
317 0 m 257
 583 0 l 257
 1059 1053 l 257
 1189 0 l 257
 1438 0 l 257
 2074 1476 l 257
 1792 1476 l 257
 1386 466 l 257
 1251 1476 l 257
 1002 1476 l 257
 550 455 l 257
 481 1476 l 257
 200 1476 l 257
 317 0 l 257
EndSplineSet
EndChar

StartChar: X
Encoding: 88 88 157
Width: 1352
VWidth: 0
Flags: HW
PickledData: "(dp1
S'org.robofab.postScriptHintData'
p2
(dp3
s."
LayerCount: 2
Fore
SplineSet
-92 0 m 257
 218 0 l 257
 627 501 l 257
 857 0 l 257
 1184 0 l 257
 832 749 l 257
 1427 1476 l 257
 1099 1476 l 257
 715 997 l 257
 489 1476 l 257
 180 1476 l 257
 515 748 l 257
 -92 0 l 257
EndSplineSet
EndChar

StartChar: Y
Encoding: 89 89 158
Width: 1340
VWidth: 0
Flags: HW
PickledData: "(dp1
S'org.robofab.postScriptHintData'
p2
(dp3
s."
AnchorPoint: "top" 824 1476 basechar 0
LayerCount: 2
Fore
SplineSet
397 0 m 257
 693 0 l 257
 793 567 l 257
 1452 1476 l 257
 1152 1476 l 257
 698 859 l 257
 461 1476 l 257
 148 1476 l 257
 497 567 l 257
 397 0 l 257
EndSplineSet
EndChar

StartChar: Z
Encoding: 90 90 165
Width: 1222
VWidth: 0
Flags: HW
PickledData: "(dp1
S'org.robofab.postScriptHintData'
p2
(dp3
s."
AnchorPoint: "top" 824 1476 basechar 0
LayerCount: 2
Fore
SplineSet
-8 0 m 257
 1010 0 l 257
 1047 210 l 257
 375 210 l 257
 1227 1297 l 257
 1258 1476 l 257
 277 1476 l 257
 239 1258 l 257
 876 1258 l 257
 23 177 l 257
 -8 0 l 257
EndSplineSet
EndChar

StartChar: a
Encoding: 97 97 169
Width: 1174
VWidth: 0
Flags: HW
PickledData: "(dp1
S'org.robofab.postScriptHintData'
p2
(dp3
sS'com.typemytype.robofont.layerData'
p4
(dp5
s."
AnchorPoint: "ogonek" 912 0 basechar 0
AnchorPoint: "top" 689 1074 basechar 0
LayerCount: 2
Fore
SplineSet
324 -23 m 256
 481 -23 604 35 685 130 c 257
 702 43 758 -8 917 -8 c 258
 1009 -8 l 257
 1055 190 l 257
 981 190 956 201 956 249 c 0
 956 264 959 284 963 308 c 258
 1038 733 l 258
 1044 766 1047 797 1047 826 c 0
 1047 994 945 1097 671 1097 c 256
 377 1097 219 963 182 755 c 257
 177 723 l 257
 432 723 l 257
 439 765 l 257
 454 848 495 907 631 907 c 256
 737 907 783 883 783 820 c 0
 783 722 735 694 674 673 c 258
 463 602 l 258
 196 512 90 415 66 278 c 256
 62 256 60 234 60 214 c 0
 60 67 160 -23 324 -23 c 256
428 161 m 256
 371 161 326 186 326 256 c 0
 326 266 327 277 329 289 c 256
 341 353 390 407 504 449 c 258
 734 533 l 257
 691 289 l 257
 624 207 492 161 428 161 c 256
EndSplineSet
Substitution2: "Single Substitution lookup 14 subtable" ordfeminine
EndChar

StartChar: acute
Encoding: 180 180 174
Width: 554
VWidth: 0
Flags: HW
PickledData: "(dp1
S'org.robofab.postScriptHintData'
p2
(dp3
s."
AnchorPoint: "top" 109 1074 mark 0
LayerCount: 2
Fore
SplineSet
74 1218 m 257
 223 1218 l 257
 520 1583 l 257
 252 1583 l 257
 74 1218 l 257
EndSplineSet
EndChar

StartChar: ae
Encoding: 230 230 178
Width: 1734
VWidth: 0
Flags: HW
PickledData: "(dp1
S'org.robofab.postScriptHintData'
p2
(dp3
s."
AnchorPoint: "top" 985 1074 basechar 0
LayerCount: 2
Fore
SplineSet
69 293 m 256
 64 266 62 241 62 217 c 0
 62 67 153 -23 321 -23 c 256
 522 -23 645 31 775 130 c 257
 811 29 918 -23 1087 -23 c 256
 1377 -23 1529 41 1590 353 c 257
 1338 353 l 257
 1304 184 1248 166 1125 166 c 256
 1027 166 970 194 970 278 c 0
 970 291 971 305 974 321 c 258
 1008 514 l 257
 1620 514 l 257
 1661 745 l 258
 1666 776 1669 805 1669 832 c 0
 1669 997 1565 1097 1286 1097 c 256
 1155 1097 1041 1055 954 967 c 257
 923 1056 806 1097 672 1097 c 256
 377 1097 217 953 181 745 c 257
 176 719 l 257
 432 719 l 257
 438 755 l 257
 453 838 495 908 632 908 c 256
 742 908 783 867 783 803 c 0
 783 793 782 782 780 770 c 256
 756 631 675 640 457 586 c 256
 154 512 93 430 69 293 c 256
448 157 m 256
 369 157 327 196 327 262 c 0
 327 272 328 283 330 294 c 256
 341 354 378 419 511 447 c 256
 614 470 707 499 736 520 c 257
 690 259 l 257
 627 183 514 157 448 157 c 256
1033 655 m 257
 1051 760 l 258
 1071 874 1149 907 1258 907 c 256
 1353 907 1415 890 1415 806 c 0
 1415 794 1414 780 1411 765 c 258
 1392 655 l 257
 1033 655 l 257
EndSplineSet
EndChar

StartChar: ampersand
Encoding: 38 38 184
Width: 1526
VWidth: 0
Flags: HW
PickledData: "(dp1
S'org.robofab.postScriptHintData'
p2
(dp3
s."
LayerCount: 2
Fore
SplineSet
599 -27 m 256
 852 -27 984 17 1074 103 c 257
 1180 -23 l 257
 1370 150 l 257
 1229 309 l 257
 1257 367 1282 462 1297 549 c 258
 1346 822 l 257
 1111 822 l 257
 1059 531 l 258
 1056 515 1056 514 1053 500 c 257
 675 951 l 257
 615 1028 589 1059 589 1110 c 0
 589 1122 590 1134 593 1149 c 256
 610 1244 656 1305 859 1305 c 256
 1018 1305 1079 1294 1079 1207 c 0
 1079 1191 1077 1173 1073 1152 c 258
 1065 1110 l 257
 1303 1110 l 257
 1318 1193 l 258
 1323 1222 1326 1249 1326 1273 c 0
 1326 1446 1193 1506 886 1506 c 256
 525 1506 373 1395 332 1165 c 256
 327 1138 325 1112 325 1089 c 0
 325 979 374 905 447 825 c 257
 242 767 134 661 99 460 c 256
 89 403 84 352 84 306 c 0
 84 68 227 -27 599 -27 c 256
638 195 m 256
 431 195 361 237 361 362 c 0
 361 392 365 426 372 466 c 256
 393 588 410 668 553 704 c 257
 912 279 l 257
 862 198 747 195 638 195 c 256
EndSplineSet
EndChar

StartChar: approxequal
Encoding: 8776 8776 186
Width: 1024
VWidth: 0
Flags: HW
PickledData: "(dp1
S'org.robofab.postScriptHintData'
p2
(dp3
s."
LayerCount: 2
Fore
SplineSet
659 738 m 256
 794 738 920 839 953 1027 c 257
 844 1027 l 257
 832 956 790 905 700 905 c 256
 620 905 447 1043 294 1043 c 256
 159 1043 35 943 1 754 c 257
 109 754 l 257
 122 825 164 877 255 877 c 256
 334 877 505 738 659 738 c 256
729 1131 m 256
 864 1131 990 1232 1023 1420 c 257
 914 1420 l 257
 901 1349 859 1298 769 1298 c 256
 689 1298 517 1436 364 1436 c 256
 229 1436 104 1336 71 1147 c 257
 179 1147 l 257
 191 1218 233 1270 324 1270 c 256
 403 1270 575 1131 729 1131 c 256
EndSplineSet
EndChar

StartChar: asciicircum
Encoding: 94 94 189
Width: 1257
VWidth: 0
Flags: HW
PickledData: "(dp1
S'org.robofab.postScriptHintData'
p2
(dp3
s."
LayerCount: 2
Fore
SplineSet
12 511 m 257
 249 511 l 257
 660 1112 l 257
 858 511 l 257
 1085 511 l 257
 813 1283 l 257
 554 1283 l 257
 12 511 l 257
EndSplineSet
EndChar

StartChar: asciitilde
Encoding: 126 126 190
Width: 1024
VWidth: 0
Flags: HW
PickledData: "(dp1
S'org.robofab.postScriptHintData'
p2
(dp3
s."
LayerCount: 2
Fore
SplineSet
661 1131 m 256
 796 1131 928 1262 961 1450 c 257
 852 1450 l 257
 839 1379 792 1298 702 1298 c 256
 622 1298 515 1466 362 1466 c 256
 227 1466 97 1336 63 1147 c 257
 171 1147 l 257
 184 1218 231 1300 322 1300 c 256
 401 1300 507 1131 661 1131 c 256
EndSplineSet
EndChar

StartChar: asterisk
Encoding: 42 42 191
Width: 998
VWidth: 0
Flags: HW
PickledData: "(dp1
S'org.robofab.postScriptHintData'
p2
(dp3
s."
LayerCount: 2
Fore
SplineSet
335 599 m 257
 513 599 l 257
 540 912 l 257
 753 722 l 257
 875 875 l 257
 620 1017 l 257
 932 1134 l 257
 879 1295 l 257
 575 1121 l 257
 663 1446 l 257
 485 1446 l 257
 457 1133 l 257
 244 1323 l 257
 122 1170 l 257
 377 1028 l 257
 66 911 l 257
 118 750 l 257
 422 924 l 257
 335 599 l 257
EndSplineSet
EndChar

StartChar: at
Encoding: 64 64 192
Width: 2048
VWidth: 0
Flags: HW
PickledData: "(dp1
S'org.robofab.postScriptHintData'
p2
(dp3
s."
LayerCount: 2
Fore
SplineSet
908 -477 m 257
 1152 -477 1415 -423 1607 -375 c 257
 1584 -172 l 257
 1416 -206 1186 -256 972 -256 c 256
 675 -256 450 -158 450 184 c 0
 450 238 455 297 467 363 c 258
 533 741 l 258
 622 1246 828 1320 1201 1320 c 256
 1489 1320 1575 1239 1575 1066 c 0
 1575 1017 1568 960 1557 895 c 257
 1557 895 1233 819 1191 809 c 256
 811 713 740 583 712 428 c 256
 707 402 705 377 705 353 c 0
 705 158 856 53 1053 53 c 256
 1211 53 1381 119 1460 208 c 257
 1483 127 1505 59 1660 59 c 258
 1766 59 l 257
 1821 259 l 257
 1751 259 1730 278 1730 326 c 0
 1730 344 1733 367 1738 394 c 258
 1819 863 l 258
 1833 942 1841 1014 1841 1078 c 0
 1841 1383 1669 1523 1190 1523 c 256
 635 1523 370 1260 284 770 c 257
 209 348 l 258
 195 266 188 192 188 124 c 0
 188 -322 700 -304 908 -477 c 257
1141 267 m 256
 1042 267 965 303 965 404 c 0
 965 417 966 430 969 445 c 256
 988 552 1044 617 1234 666 c 256
 1283 678 1525 741 1531 744 c 257
 1466 377 l 257
 1447 325 1263 267 1141 267 c 256
EndSplineSet
EndChar

StartChar: b
Encoding: 98 98 194
Width: 1232
VWidth: 0
Flags: HW
PickledData: "(dp1
S'org.robofab.postScriptHintData'
p2
(dp3
s."
AnchorPoint: "top" 760 1074 basechar 0
LayerCount: 2
Fore
SplineSet
529 -23 m 256
 790 -23 982 120 1018 329 c 258
 1093 753 l 258
 1097 777 1100 802 1100 825 c 0
 1100 975 1005 1097 744 1097 c 256
 654 1097 565 1074 494 1040 c 257
 578 1516 l 257
 306 1516 l 257
 38 0 l 257
 225 0 l 257
 264 65 l 257
 325 19 412 -23 529 -23 c 256
518 168 m 256
 445 168 384 185 348 216 c 257
 461 857 l 257
 484 867 563 907 661 907 c 256
 767 907 826 875 826 795 c 0
 826 784 824 771 822 758 c 258
 745 323 l 258
 726 215 635 168 518 168 c 256
EndSplineSet
EndChar

StartChar: backslash
Encoding: 92 92 195
Width: 1024
VWidth: 0
Flags: HW
PickledData: "(dp1
S'org.robofab.postScriptHintData'
p2
(dp3
s."
LayerCount: 2
Fore
SplineSet
541 0 m 257
 784 0 l 257
 483 1516 l 257
 240 1516 l 257
 541 0 l 257
EndSplineSet
EndChar

StartChar: bar
Encoding: 124 124 196
Width: 768
VWidth: 0
Flags: HW
PickledData: "(dp1
S'org.robofab.postScriptHintData'
p2
(dp3
s."
LayerCount: 2
Fore
SplineSet
109 -126 m 257
 353 -126 l 257
 659 1608 l 257
 415 1608 l 257
 109 -126 l 257
EndSplineSet
EndChar

StartChar: braceleft
Encoding: 123 123 198
Width: 992
VWidth: 0
Flags: HW
PickledData: "(dp1
S'org.robofab.postScriptHintData'
p2
(dp3
s."
LayerCount: 2
Fore
SplineSet
698 -128 m 257
 728 46 l 257
 602 46 566 75 566 149 c 0
 566 177 571 211 578 252 c 258
 598 369 l 258
 608 425 613 474 613 517 c 0
 613 626 579 692 499 722 c 257
 619 758 690 896 723 1080 c 257
 745 1210 l 257
 770 1349 789 1382 964 1382 c 257
 994 1556 l 257
 637 1556 520 1515 454 1139 c 258
 436 1036 l 258
 407 873 356 833 209 833 c 257
 167 595 l 257
 284 595 334 580 334 490 c 0
 334 468 331 441 325 409 c 258
 310 322 l 258
 298 256 292 198 292 148 c 0
 292 -53 398 -128 698 -128 c 257
EndSplineSet
EndChar

StartChar: braceright
Encoding: 125 125 199
Width: 991
VWidth: 0
Flags: HW
PickledData: "(dp1
S'org.robofab.postScriptHintData'
p2
(dp3
s."
LayerCount: 2
Fore
SplineSet
29 -128 m 257
 404 -128 516 -11 575 322 c 257
 590 409 l 258
 619 572 668 595 814 595 c 257
 856 833 l 257
 739 833 692 858 692 950 c 0
 692 974 695 1002 701 1036 c 258
 719 1139 l 258
 731 1209 738 1267 738 1316 c 0
 738 1529 615 1556 325 1556 c 257
 295 1382 l 257
 426 1382 463 1364 463 1297 c 0
 463 1274 458 1245 452 1210 c 258
 430 1080 l 258
 421 1029 416 982 416 939 c 0
 416 827 449 748 526 722 c 257
 401 680 338 569 303 369 c 258
 283 252 l 257
 256 101 232 46 59 46 c 257
 29 -128 l 257
EndSplineSet
EndChar

StartChar: bracketleft
Encoding: 91 91 200
Width: 842
VWidth: 0
Flags: HW
PickledData: "(dp1
S'org.robofab.postScriptHintData'
p2
(dp3
s."
LayerCount: 2
Fore
SplineSet
64 -89 m 257
 546 -89 l 257
 574 72 l 257
 365 72 l 257
 605 1431 l 257
 814 1431 l 257
 842 1592 l 257
 360 1592 l 257
 64 -89 l 257
EndSplineSet
EndChar

StartChar: bracketright
Encoding: 93 93 201
Width: 842
VWidth: 0
Flags: HW
PickledData: "(dp1
S'org.robofab.postScriptHintData'
p2
(dp3
s."
LayerCount: 2
Fore
SplineSet
-2 -89 m 257
 480 -89 l 257
 776 1592 l 257
 294 1592 l 257
 266 1431 l 257
 476 1431 l 257
 236 72 l 257
 26 72 l 257
 -2 -89 l 257
EndSplineSet
EndChar

StartChar: breve
Encoding: 728 728 202
Width: 512
VWidth: 0
Flags: HW
PickledData: "(dp1
S'org.robofab.postScriptHintData'
p2
(dp3
s."
AnchorPoint: "top" 219 1074 mark 0
LayerCount: 2
Fore
SplineSet
233 1217 m 256
 361 1217 500 1276 535 1476 c 257
 391 1476 l 257
 377 1400 317 1376 261 1376 c 256
 211 1376 165 1395 165 1452 c 0
 165 1459 165 1467 167 1476 c 257
 23 1476 l 257
 19 1452 17 1429 17 1409 c 0
 17 1263 121 1217 233 1217 c 256
EndSplineSet
EndChar

StartChar: brokenbar
Encoding: 166 166 203
Width: 769
VWidth: 0
Flags: HW
PickledData: "(dp1
S'org.robofab.postScriptHintData'
p2
(dp3
s."
LayerCount: 2
Fore
SplineSet
139 -120 m 257
 348 -120 l 257
 473 590 l 257
 264 590 l 257
 139 -120 l 257
302 800 m 257
 511 800 l 257
 630 1476 l 257
 421 1476 l 257
 302 800 l 257
EndSplineSet
EndChar

StartChar: bullet
Encoding: 8226 8226 204
Width: 1024
VWidth: 0
Flags: HW
PickledData: "(dp1
S'org.robofab.postScriptHintData'
p2
(dp3
s."
LayerCount: 2
Fore
SplineSet
455 390 m 257
 648 390 800 524 832 707 c 256
 836 729 838 750 838 771 c 0
 838 921 737 1025 568 1025 c 256
 375 1025 224 891 192 707 c 256
 188 684 186 662 186 641 c 0
 186 492 287 390 455 390 c 257
EndSplineSet
EndChar

StartChar: bulletoperator
Encoding: 8729 8729 205
Width: 459
VWidth: 0
Flags: HW
PickledData: "(dp1
S'org.robofab.postScriptHintData'
p2
(dp3
s."
LayerCount: 2
Fore
SplineSet
95 1251 m 257
 343 1251 l 257
 387 1498 l 257
 139 1498 l 257
 95 1251 l 257
EndSplineSet
EndChar

StartChar: c
Encoding: 99 99 206
Width: 1158
VWidth: 0
Flags: HW
PickledData: "(dp1
S'org.robofab.postScriptHintData'
p2
(dp3
s."
AnchorPoint: "bot" 496 0 basechar 0
AnchorPoint: "top" 707 1074 basechar 0
LayerCount: 2
Fore
SplineSet
490 -23 m 256
 835 -23 940 77 999 380 c 257
 745 380 l 257
 713 197 675 168 530 168 c 256
 423 168 370 197 370 278 c 0
 370 291 371 306 374 322 c 258
 451 756 l 258
 470 867 544 907 660 907 c 256
 768 907 810 889 810 796 c 0
 810 766 805 727 797 679 c 257
 1057 699 l 257
 1065 744 1069 783 1069 819 c 0
 1069 1031 934 1097 684 1097 c 256
 403 1097 217 972 179 757 c 258
 103 327 l 258
 98 297 95 268 95 240 c 0
 95 92 181 -23 490 -23 c 256
EndSplineSet
EndChar

StartChar: caron
Encoding: 711 711 208
Width: 512
VWidth: 0
Flags: HW
PickledData: "(dp1
S'org.robofab.postScriptHintData'
p2
(dp3
s."
AnchorPoint: "top" 216 1074 mark 0
LayerCount: 2
Fore
SplineSet
354 1216 m 257
 616 1514 l 257
 391 1514 l 257
 268 1371 l 257
 187 1514 l 257
 -43 1514 l 257
 129 1216 l 257
 354 1216 l 257
EndSplineSet
EndChar

StartChar: caron.alt
Encoding: 65537 -1 209
Width: 600
VWidth: 0
Flags: HW
PickledData: "(dp1
S'org.robofab.postScriptHintData'
p2
(dp3
s."
AnchorPoint: "caron.alt" 302 1074 mark 0
LayerCount: 2
Fore
SplineSet
649 1193 m 257
 721 1250 887 1434 922 1635 c 257
 962 1858 l 257
 641 1858 l 257
 592 1582 l 257
 757 1582 l 257
 733 1444 612 1298 551 1240 c 257
 649 1193 l 257
EndSplineSet
EndChar

StartChar: cedilla
Encoding: 184 184 214
Width: 512
VWidth: 0
Flags: HW
PickledData: "(dp1
S'org.robofab.postScriptHintData'
p2
(dp3
s."
AnchorPoint: "bot" 237 0 mark 0
LayerCount: 2
Fore
SplineSet
296 -263 m 0
 296 -327 244 -365 162 -365 c 256
 143 -365 122 -363 99 -358 c 257
 78 -475 l 257
 112 -482 142 -484 171 -484 c 256
 335 -484 432 -395 449 -301 c 256
 452 -286 453 -271 453 -257 c 0
 453 -182 414 -113 295 -91 c 257
 307 10 l 257
 201 10 l 257
 170 -162 l 257
 258 -165 296 -214 296 -263 c 0
EndSplineSet
EndChar

StartChar: cent
Encoding: 162 162 215
Width: 1107
VWidth: 0
Flags: HW
PickledData: "(dp1
S'org.robofab.postScriptHintData'
p2
(dp3
s."
LayerCount: 2
Fore
SplineSet
620 1006 m 257
 713 1006 l 257
 764 1291 l 257
 671 1291 l 257
 620 1006 l 257
405 -214 m 257
 498 -214 l 257
 549 71 l 257
 456 71 l 257
 405 -214 l 257
EndSplineSet
Refer: 206 99 N 1 0 0 1 0 0 2
EndChar

StartChar: circumflex
Encoding: 710 710 216
Width: 512
VWidth: 0
Flags: HW
PickledData: "(dp1
S'org.robofab.postScriptHintData'
p2
(dp3
s."
AnchorPoint: "top" 216 1074 mark 0
LayerCount: 2
Fore
SplineSet
-95 1216 m 257
 135 1216 l 257
 266 1359 l 257
 339 1216 l 257
 564 1216 l 257
 406 1514 l 257
 181 1514 l 257
 -95 1216 l 257
EndSplineSet
EndChar

StartChar: comma
Encoding: 44 44 218
Width: 768
VWidth: 0
Flags: HW
PickledData: "(dp1
S'org.robofab.postScriptHintData'
p2
(dp3
s."
LayerCount: 2
Fore
SplineSet
290 -389 m 257
 362 -333 529 -148 564 53 c 257
 604 276 l 257
 282 276 l 257
 233 0 l 257
 398 0 l 257
 374 -138 253 -285 191 -343 c 257
 290 -389 l 257
EndSplineSet
EndChar

StartChar: copyright
Encoding: 169 169 219
Width: 1776
VWidth: 0
Flags: HW
PickledData: "(dp1
S'org.robofab.postScriptHintData'
p2
(dp3
s."
LayerCount: 2
Fore
SplineSet
822 287 m 257
 1098 287 1171 422 1202 598 c 258
 1208 632 l 257
 1092 632 l 257
 1082 571 l 257
 1055 419 991 376 838 376 c 256
 707 376 635 408 635 514 c 0
 635 531 637 550 641 571 c 258
 697 890 l 258
 724 1042 812 1091 963 1091 c 256
 1089 1091 1145 1057 1145 959 c 0
 1145 939 1143 916 1138 890 c 258
 1127 826 l 257
 1244 836 l 257
 1249 861 l 258
 1256 899 1260 935 1260 968 c 0
 1260 1095 1199 1182 979 1182 c 256
 691 1182 605 1050 573 868 c 258
 524 590 l 258
 518 558 515 528 515 500 c 0
 515 371 586 287 822 287 c 257
777 82 m 256
 456 82 250 296 250 597 c 0
 250 637 253 679 261 722 c 256
 325 1086 639 1361 1003 1361 c 256
 1326 1361 1529 1148 1529 848 c 0
 1529 808 1526 765 1518 722 c 256
 1454 357 1143 82 777 82 c 256
758 -14 m 256
 1174 -14 1550 303 1624 722 c 256
 1632 769 1636 815 1636 859 c 0
 1636 1206 1387 1456 1018 1456 c 256
 605 1456 226 1139 152 722 c 256
 144 675 140 629 140 585 c 0
 140 236 391 -14 758 -14 c 256
EndSplineSet
EndChar

StartChar: currency
Encoding: 164 164 220
Width: 1126
VWidth: 0
Flags: HW
PickledData: "(dp1
S'org.robofab.postScriptHintData'
p2
(dp3
s."
LayerCount: 2
Fore
SplineSet
286 892 m 257
 239 824 210 755 210 657 c 0
 210 622 215 589 225 559 c 257
 81 467 l 257
 114 383 l 257
 266 480 l 257
 312 420 391 381 500 381 c 256
 609 381 701 423 769 485 c 257
 890 384 l 257
 956 465 l 257
 836 563 l 257
 879 627 905 698 905 791 c 0
 905 824 901 856 891 886 c 257
 1045 986 l 257
 1012 1067 l 257
 851 964 l 257
 805 1025 729 1064 620 1064 c 256
 512 1064 421 1026 354 968 c 257
 237 1067 l 257
 170 987 l 257
 286 892 l 257
752 766 m 0
 752 638 664 528 525 528 c 256
 412 528 364 597 364 681 c 0
 364 809 453 918 594 918 c 256
 705 918 752 849 752 766 c 0
EndSplineSet
EndChar

StartChar: d
Encoding: 100 100 221
Width: 1228
VWidth: 0
Flags: HW
PickledData: "(dp1
S'org.robofab.postScriptHintData'
p2
(dp3
s."
AnchorPoint: "mid" 1026 1313 basechar 0
AnchorPoint: "caron.alt" 1017 1074 basechar 0
AnchorPoint: "top" 606 1074 basechar 0
LayerCount: 2
Fore
SplineSet
431 -23 m 256
 541 -23 646 14 724 63 c 257
 742 0 l 257
 926 0 l 257
 1194 1516 l 257
 922 1516 l 257
 841 1059 l 257
 782 1082 709 1097 648 1097 c 256
 335 1097 176 951 141 753 c 258
 66 324 l 258
 61 297 59 271 59 246 c 0
 59 77 177 -23 431 -23 c 256
497 168 m 256
 392 168 333 201 333 283 c 0
 333 294 335 307 337 320 c 258
 414 759 l 258
 433 868 513 907 637 907 c 256
 713 907 775 887 808 870 c 257
 692 211 l 257
 645 186 572 168 497 168 c 256
EndSplineSet
EndChar

StartChar: dagger
Encoding: 8224 8224 222
Width: 1024
VWidth: 0
Flags: HW
PickledData: "(dp1
S'org.robofab.postScriptHintData'
p2
(dp3
s."
LayerCount: 2
Fore
SplineSet
292 0 m 257
 497 0 l 257
 648 857 l 257
 899 857 l 257
 927 1013 l 257
 676 1013 l 257
 731 1324 l 257
 526 1324 l 257
 471 1013 l 257
 221 1013 l 257
 193 857 l 257
 443 857 l 257
 292 0 l 257
EndSplineSet
EndChar

StartChar: daggerdbl
Encoding: 8225 8225 223
Width: 1025
VWidth: 0
Flags: HW
PickledData: "(dp1
S'org.robofab.postScriptHintData'
p2
(dp3
s."
LayerCount: 2
Fore
SplineSet
292 0 m 257
 497 0 l 257
 565 383 l 257
 757 383 l 257
 790 569 l 257
 598 569 l 257
 651 873 l 257
 843 873 l 257
 876 1059 l 257
 684 1059 l 257
 731 1324 l 257
 526 1324 l 257
 479 1059 l 257
 289 1059 l 257
 256 873 l 257
 446 873 l 257
 393 569 l 257
 203 569 l 257
 170 383 l 257
 360 383 l 257
 292 0 l 257
EndSplineSet
EndChar

StartChar: degree
Encoding: 176 176 227
Width: 974
VWidth: 0
Flags: HW
PickledData: "(dp1
S'org.robofab.postScriptHintData'
p2
(dp3
s."
LayerCount: 2
Fore
SplineSet
691 1218 m 0
 691 1093 600 992 456 992 c 256
 336 992 285 1060 285 1143 c 0
 285 1155 286 1168 288 1181 c 256
 305 1278 384 1370 522 1370 c 256
 640 1370 691 1300 691 1218 c 0
431 850 m 256
 667 850 816 1010 846 1180 c 256
 850 1201 851 1221 851 1241 c 0
 851 1387 754 1511 547 1511 c 257
 308 1511 158 1351 128 1180 c 256
 124 1160 123 1139 123 1119 c 0
 123 974 220 850 431 850 c 256
EndSplineSet
EndChar

StartChar: dieresis
Encoding: 168 168 228
Width: 967
VWidth: 0
Flags: HW
PickledData: "(dp1
S'org.robofab.postScriptHintData'
p2
(dp3
s."
AnchorPoint: "top" 444 1074 mark 0
LayerCount: 2
Fore
SplineSet
94 1244 m 257
 358 1244 l 257
 400 1477 l 257
 136 1477 l 257
 94 1244 l 257
603 1244 m 257
 868 1244 l 257
 910 1477 l 257
 645 1477 l 257
 603 1244 l 257
EndSplineSet
EndChar

StartChar: divide
Encoding: 247 247 229
Width: 1004
VWidth: 0
Flags: HW
PickledData: "(dp1
S'org.robofab.postScriptHintData'
p2
(dp3
s."
LayerCount: 2
Fore
SplineSet
307 94 m 257
 535 94 l 257
 576 323 l 257
 348 323 l 257
 307 94 l 257
98 479 m 257
 878 479 l 257
 907 642 l 257
 127 642 l 257
 98 479 l 257
430 792 m 257
 658 792 l 257
 699 1021 l 257
 471 1021 l 257
 430 792 l 257
EndSplineSet
EndChar

StartChar: dollar
Encoding: 36 36 231
Width: 1281
VWidth: 0
Flags: HW
PickledData: "(dp1
S'org.robofab.postScriptHintData'
p2
(dp3
s."
LayerCount: 2
Fore
SplineSet
433 -312 m 257
 543 -312 l 257
 907 1758 l 257
 797 1758 l 257
 433 -312 l 257
EndSplineSet
Refer: 122 83 N 1 0 0 1 0 0 2
EndChar

StartChar: dotaccent
Encoding: 729 729 232
Width: 489
VWidth: 0
Flags: HW
PickledData: "(dp1
S'org.robofab.postScriptHintData'
p2
(dp3
s."
AnchorPoint: "top" 203 1074 mark 0
LayerCount: 2
Fore
SplineSet
95 1251 m 257
 363 1251 l 257
 407 1505 l 257
 139 1505 l 257
 95 1251 l 257
EndSplineSet
EndChar

StartChar: dotlessi
Encoding: 305 305 233
Width: 570
VWidth: 0
Flags: HW
PickledData: "(dp1
S'org.robofab.postScriptHintData'
p2
(dp3
s."
AnchorPoint: "ogonek" 214 0 basechar 0
AnchorPoint: "top" 398 1074 basechar 0
LayerCount: 2
Fore
SplineSet
75 0 m 257
 326 0 l 257
 516 1074 l 257
 265 1074 l 257
 75 0 l 257
EndSplineSet
EndChar

StartChar: dotlessj
Encoding: 567 567 234
Width: 673
VWidth: 0
Flags: HW
PickledData: "(dp1
S'org.robofab.postScriptHintData'
p2
(dp3
s."
AnchorPoint: "top" 493 1074 basechar 0
LayerCount: 2
Fore
SplineSet
-108 -329 m 257
 1 -329 l 258
 268 -329 401 -183 439 30 c 258
 623 1074 l 257
 350 1074 l 257
 168 43 l 258
 153 -39 106 -135 -34 -135 c 258
 -79 -135 l 257
 -108 -329 l 257
EndSplineSet
EndChar

StartChar: e
Encoding: 101 101 237
Width: 1181
VWidth: 0
Flags: HW
PickledData: "(dp1
S'org.robofab.postScriptHintData'
p2
(dp3
s."
AnchorPoint: "bot" 507 0 basechar 0
AnchorPoint: "ogonek" 609 0 basechar 0
AnchorPoint: "top" 713 1074 basechar 0
LayerCount: 2
Fore
SplineSet
503 -23 m 256
 783 -23 957 32 1018 330 c 257
 766 330 l 257
 732 168 667 166 542 166 c 256
 429 166 368 179 368 265 c 0
 368 278 369 293 372 310 c 258
 403 485 l 257
 1046 485 l 257
 1092 745 l 258
 1097 773 1100 800 1100 825 c 0
 1100 994 985 1097 697 1097 c 256
 418 1097 217 974 178 755 c 258
 105 336 l 258
 100 306 97 278 97 252 c 0
 97 42 269 -23 503 -23 c 256
432 651 m 257
 453 772 l 257
 474 886 561 907 670 907 c 256
 767 907 843 898 843 811 c 0
 843 801 842 790 840 777 c 258
 818 651 l 257
 432 651 l 257
EndSplineSet
EndChar

StartChar: eight
Encoding: 56 56 246
Width: 1379
VWidth: 0
Flags: HW
PickledData: "(dp1
S'org.robofab.postScriptHintData'
p2
(dp3
s."
LayerCount: 2
Fore
SplineSet
553 -20 m 256
 906 -20 1127 119 1172 374 c 256
 1177 400 1179 425 1179 450 c 0
 1179 592 1100 710 912 783 c 257
 1129 848 1242 982 1268 1128 c 256
 1272 1152 1274 1176 1274 1199 c 0
 1274 1369 1151 1496 823 1496 c 256
 454 1496 276 1335 241 1134 c 256
 237 1111 235 1088 235 1066 c 0
 235 939 306 838 465 783 c 257
 254 697 115 571 79 372 c 256
 75 347 73 324 73 301 c 0
 73 98 245 -20 553 -20 c 256
593 193 m 256
 413 193 352 261 352 350 c 0
 352 363 354 377 356 391 c 256
 375 502 478 592 676 672 c 257
 829 600 901 521 901 426 c 0
 901 415 900 403 898 391 c 256
 879 283 799 193 593 193 c 256
711 869 m 257
 575 940 514 995 514 1081 c 0
 514 1093 516 1106 518 1119 c 256
 535 1217 602 1289 786 1289 c 256
 945 1289 995 1232 995 1157 c 0
 995 1145 993 1132 991 1119 c 256
 973 1015 887 950 711 869 c 257
EndSplineSet
EndChar

StartChar: emdash
Encoding: 8212 8212 250
Width: 961
VWidth: 0
Flags: HW
PickledData: "(dp1
S'org.robofab.postScriptHintData'
p2
(dp3
s."
LayerCount: 2
Fore
SplineSet
-12 383 m 257
 942 383 l 257
 972 556 l 257
 18 556 l 257
 -12 383 l 257
EndSplineSet
EndChar

StartChar: emptyset
Encoding: 8709 8709 251
Width: 1552
VWidth: 0
Flags: HW
PickledData: "(dp1
S'org.robofab.postScriptHintData'
p2
(dp3
s."
LayerCount: 2
Fore
SplineSet
696 206 m 256
 456 206 303 365 303 590 c 0
 303 620 306 650 311 682 c 256
 359 952 592 1157 863 1157 c 256
 1102 1157 1254 998 1254 776 c 0
 1254 746 1251 714 1245 682 c 256
 1198 410 968 206 696 206 c 256
669 66 m 256
 1017 66 1332 331 1393 682 c 256
 1400 721 1403 760 1403 797 c 0
 1403 1088 1195 1296 886 1296 c 256
 540 1296 223 1031 161 682 c 256
 154 643 151 606 151 569 c 0
 151 276 361 66 669 66 c 256
93 70 m 257
 166 -6 l 257
 1469 1277 l 257
 1396 1353 l 257
 93 70 l 257
EndSplineSet
EndChar

StartChar: endash
Encoding: 8211 8211 252
Width: 716
VWidth: 0
Flags: HW
PickledData: "(dp1
S'org.robofab.postScriptHintData'
p2
(dp3
s."
LayerCount: 2
Fore
SplineSet
113 446 m 257
 573 446 l 257
 603 612 l 257
 143 612 l 257
 113 446 l 257
EndSplineSet
EndChar

StartChar: eng
Encoding: 331 331 253
Width: 1254
VWidth: 0
Flags: HW
PickledData: "(dp1
S'org.robofab.postScriptHintData'
p2
(dp3
s."
LayerCount: 2
Fore
SplineSet
424 -365 m 257
 866 -365 1002 -202 1069 179 c 258
 1177 794 l 258
 1180 814 1182 833 1182 851 c 0
 1182 1000 1069 1097 885 1097 c 256
 736 1097 596 1030 536 948 c 257
 558 1074 l 257
 285 1074 l 257
 95 0 l 257
 368 0 l 257
 502 758 l 258
 521 863 638 907 737 907 c 256
 814 907 903 885 903 796 c 0
 903 787 902 778 900 768 c 258
 795 172 l 258
 740 -140 677 -153 430 -175 c 257
 424 -365 l 257
EndSplineSet
EndChar

StartChar: equal
Encoding: 61 61 255
Width: 880
VWidth: 0
Flags: HW
PickledData: "(dp1
S'org.robofab.postScriptHintData'
p2
(dp3
s."
LayerCount: 2
Fore
SplineSet
64 371 m 257
 720 371 l 257
 751 544 l 257
 95 544 l 257
 64 371 l 257
129 740 m 257
 785 740 l 257
 816 913 l 257
 160 913 l 257
 129 740 l 257
EndSplineSet
EndChar

StartChar: estimated
Encoding: 8494 8494 256
Width: 1205
VWidth: 0
Flags: HW
PickledData: "(dp1
S'org.robofab.postScriptHintData'
p2
(dp3
s."
LayerCount: 2
Fore
SplineSet
715 1173 m 256
 818 1173 913 1134 956 1054 c 257
 913 808 l 257
 379 808 l 257
 422 1055 l 257
 498 1133 611 1173 715 1173 c 256
95 730 m 256
 87 687 83 645 83 605 c 0
 83 353 237 178 565 178 c 256
 771 178 921 267 1040 385 c 257
 970 464 l 257
 859 363 738 304 586 304 c 256
 455 304 375 344 318 425 c 257
 367 701 l 257
 1104 701 l 257
 1115 763 1121 821 1121 875 c 0
 1121 1128 996 1280 734 1280 c 256
 414 1280 150 1041 95 730 c 256
EndSplineSet
EndChar

StartChar: eth
Encoding: 240 240 257
Width: 1312
VWidth: 0
Flags: HW
PickledData: "(dp1
S'org.robofab.postScriptHintData'
p2
(dp3
s."
LayerCount: 2
Fore
SplineSet
529 -23 m 256
 912 -23 1071 195 1117 460 c 257
 1131 536 l 258
 1151 648 1160 747 1160 835 c 0
 1160 1220 988 1389 795 1448 c 257
 896 1598 l 257
 786 1655 l 257
 671 1485 l 257
 600 1501 529 1505 468 1505 c 256
 435 1505 404 1504 378 1502 c 257
 325 1335 l 257
 393 1334 477 1333 560 1318 c 257
 456 1167 l 257
 565 1110 l 257
 685 1284 l 257
 790 1252 884 1153 884 963 c 0
 884 949 884 935 883 921 c 257
 860 944 715 975 649 975 c 256
 386 975 171 846 131 618 c 258
 82 342 l 258
 78 317 76 294 76 271 c 0
 76 89 217 -23 529 -23 c 256
565 178 m 256
 419 178 355 211 355 295 c 0
 355 307 357 319 359 333 c 258
 408 612 l 258
 431 743 527 793 673 793 c 256
 733 793 835 766 873 736 c 257
 873 654 854 497 842 428 c 256
 812 258 778 178 565 178 c 256
EndSplineSet
EndChar

StartChar: exclam
Encoding: 33 33 259
Width: 648
VWidth: 0
Flags: HW
PickledData: "(dp1
S'org.robofab.postScriptHintData'
p2
(dp3
s."
LayerCount: 2
Fore
SplineSet
62 0 m 257
 312 0 l 257
 355 245 l 257
 105 245 l 257
 62 0 l 257
222 410 m 257
 298 410 l 257
 298 410 565 1359 586 1477 c 257
 327 1477 l 257
 306 1359 222 410 222 410 c 257
EndSplineSet
EndChar

StartChar: f
Encoding: 102 102 261
Width: 778
VWidth: 0
Flags: HW
PickledData: "(dp1
S'org.robofab.postScriptHintData'
p2
(dp3
s."
AnchorPoint: "top" 549 1476 basechar 0
LayerCount: 2
Fore
SplineSet
95 0 m 257
 367 0 l 257
 526 901 l 257
 740 901 l 257
 771 1074 l 257
 557 1074 l 257
 576 1186 l 258
 589 1258 622 1327 740 1327 c 258
 824 1327 l 257
 851 1516 l 257
 725 1516 l 258
 470 1516 339 1380 294 1125 c 258
 285 1074 l 257
 142 1074 l 257
 111 901 l 257
 254 901 l 257
 95 0 l 257
EndSplineSet
EndChar

StartChar: firsttonechinese
Encoding: 713 713 268
Width: 511
VWidth: 0
Flags: HW
AnchorPoint: "top" 212 1074 mark 0
AnchorPoint: "mid" 258 1329 mark 0
LayerCount: 2
Fore
SplineSet
-61 1251 m 257
 543 1251 l 257
 571 1408 l 257
 -33 1408 l 257
 -61 1251 l 257
EndSplineSet
EndChar

StartChar: five
Encoding: 53 53 269
Width: 1379
VWidth: 0
Flags: HW
PickledData: "(dp1
S'org.robofab.postScriptHintData'
p2
(dp3
s."
LayerCount: 2
Fore
SplineSet
585 -20 m 256
 928 -20 1177 179 1229 474 c 256
 1235 508 1238 541 1238 573 c 0
 1238 794 1095 957 835 957 c 256
 736 957 603 935 527 867 c 257
 632 1230 l 257
 1250 1230 l 257
 1293 1476 l 257
 451 1476 l 257
 235 711 l 257
 430 604 l 257
 539 692 658 707 738 707 c 256
 859 707 943 637 943 521 c 0
 943 506 942 490 939 473 c 256
 904 274 772 203 608 203 c 256
 497 203 341 227 194 325 c 257
 80 126 l 257
 154 64 358 -20 585 -20 c 256
EndSplineSet
EndChar

StartChar: florin
Encoding: 402 402 271
Width: 1024
VWidth: 0
Flags: HW
PickledData: "(dp1
S'org.robofab.postScriptHintData'
p2
(dp3
s."
LayerCount: 2
Fore
SplineSet
216 -205 m 256
 444 -205 489 -67 519 101 c 258
 650 843 l 257
 822 843 l 257
 843 962 l 257
 671 962 l 257
 714 1207 l 258
 727 1281 751 1347 849 1347 c 256
 863 1347 885 1342 906 1341 c 257
 932 1488 l 257
 880 1494 848 1496 811 1496 c 256
 580 1496 536 1358 504 1181 c 257
 466 962 l 257
 319 962 l 257
 298 843 l 257
 445 843 l 257
 309 74 l 258
 296 1 272 -56 182 -56 c 256
 167 -56 142 -53 119 -49 c 257
 93 -196 l 257
 145 -203 178 -205 216 -205 c 256
EndSplineSet
EndChar

StartChar: foundryicon
Encoding: 65542 -1 272
Width: 1347
VWidth: 0
Flags: HW
PickledData: "(dp1
S'org.robofab.postScriptHintData'
p2
(dp3
s."
LayerCount: 2
Fore
SplineSet
449 405 m 257
 496 672 l 257
 602 672 l 257
 746 523 l 257
 772 672 l 257
 878 672 l 257
 831 405 l 257
 725 405 l 257
 581 552 l 257
 555 405 l 257
 449 405 l 257
173 2 m 257
 611 278 l 257
 959 2 l 257
 896 461 l 257
 1339 755 l 257
 854 755 l 257
 776 1215 l 257
 545 755 l 257
 60 755 l 257
 397 461 l 257
 173 2 l 257
EndSplineSet
EndChar

StartChar: four
Encoding: 52 52 273
Width: 1379
VWidth: 0
Flags: HW
PickledData: "(dp1
S'org.robofab.postScriptHintData'
p2
(dp3
s."
LayerCount: 2
Fore
SplineSet
709 0 m 257
 946 0 l 257
 996 282 l 257
 1216 282 l 257
 1259 528 l 257
 1039 528 l 257
 1098 862 l 257
 861 862 l 257
 802 528 l 257
 457 528 l 257
 1054 1476 l 257
 749 1476 l 257
 134 531 l 257
 90 282 l 257
 759 282 l 257
 709 0 l 257
EndSplineSet
Substitution2: "supsSuperscriptlookup11 subtable" uni2074
EndChar

StartChar: uni2074
Encoding: 8308 8308 274
Width: 1116
VWidth: 0
Flags: HW
PickledData: "(dp1
S'org.robofab.postScriptHintData'
p2
(dp3
s."
LayerCount: 2
Fore
SplineSet
536 616 m 257
 691 616 l 257
 726 813 l 257
 871 813 l 257
 899 973 l 257
 754 973 l 257
 791 1183 l 257
 636 1183 l 257
 599 973 l 257
 392 973 l 257
 730 1566 l 257
 519 1566 l 257
 160 975 l 257
 131 813 l 257
 571 813 l 257
 536 616 l 257
EndSplineSet
EndChar

StartChar: fraction
Encoding: 8260 8260 275
Width: 919
VWidth: 0
Flags: HW
PickledData: "(dp1
S'org.robofab.postScriptHintData'
p2
(dp3
s."
LayerCount: 2
Fore
SplineSet
-79 0 m 257
 164 0 l 257
 999 1516 l 257
 756 1516 l 257
 -79 0 l 257
EndSplineSet
EndChar

StartChar: g
Encoding: 103 103 276
Width: 1243
VWidth: 0
Flags: HW
PickledData: "(dp1
S'org.robofab.postScriptHintData'
p2
(dp3
s."
AnchorPoint: "top" 710 1074 basechar 0
LayerCount: 2
Fore
SplineSet
454 -441 m 256
 799 -441 968 -277 1015 -12 c 258
 1207 1075 l 257
 1005 1075 l 257
 968 997 l 257
 911 1052 803 1097 685 1097 c 256
 382 1097 247 935 215 751 c 258
 147 366 l 258
 143 343 141 321 141 300 c 0
 141 130 276 32 507 32 c 256
 589 32 690 50 761 88 c 257
 740 -30 l 258
 714 -178 635 -242 479 -242 c 256
 396 -242 294 -228 198 -200 c 257
 109 -385 l 257
 178 -421 321 -441 454 -441 c 256
584 213 m 256
 483 213 414 241 414 324 c 0
 414 334 415 345 417 356 c 258
 488 757 l 258
 507 865 582 907 706 907 c 256
 829 907 897 860 892 832 c 258
 791 261 l 257
 749 234 676 213 584 213 c 256
EndSplineSet
EndChar

StartChar: germandbls
Encoding: 223 223 283
Width: 1286
VWidth: 0
Flags: HW
PickledData: "(dp1
S'org.robofab.postScriptHintData'
p2
(dp3
s."
LayerCount: 2
Fore
SplineSet
9 0 m 257
 319 0 l 257
 518 1129 l 258
 538 1244 589 1318 734 1318 c 256
 874 1318 908 1250 908 1175 c 0
 908 1153 905 1132 901 1110 c 256
 881 1001 826 893 644 893 c 257
 611 703 l 257
 781 686 875 659 875 512 c 0
 875 486 872 456 866 422 c 256
 838 264 753 169 503 169 c 257
 487 -20 l 257
 916 -20 1108 156 1151 400 c 256
 1157 432 1161 467 1161 503 c 0
 1161 632 1109 772 892 819 c 257
 1064 864 1158 990 1182 1122 c 256
 1187 1149 1189 1176 1189 1202 c 0
 1189 1377 1073 1507 748 1507 c 256
 429 1507 247 1350 206 1118 c 258
 9 0 l 257
EndSplineSet
EndChar

StartChar: grave
Encoding: 96 96 284
Width: 556
VWidth: 0
Flags: HW
PickledData: "(dp1
S'org.robofab.postScriptHintData'
p2
(dp3
s."
AnchorPoint: "top" 339 1074 mark 0
LayerCount: 2
Fore
SplineSet
108 1583 m 257
 277 1218 l 257
 426 1218 l 257
 376 1583 l 257
 108 1583 l 257
EndSplineSet
EndChar

StartChar: greater
Encoding: 62 62 285
Width: 1024
VWidth: 0
Flags: HW
PickledData: "(dp1
S'org.robofab.postScriptHintData'
p2
(dp3
s."
LayerCount: 2
Fore
SplineSet
59 31 m 257
 877 446 l 257
 915 665 l 257
 245 1081 l 257
 203 848 l 257
 715 556 l 257
 100 260 l 257
 59 31 l 257
EndSplineSet
EndChar

StartChar: greaterequal
Encoding: 8805 8805 286
Width: 1250
VWidth: 0
Flags: HW
PickledData: "(dp1
S'org.robofab.postScriptHintData'
p2
(dp3
s."
LayerCount: 2
Fore
SplineSet
173 236 m 257
 989 651 l 257
 1028 870 l 257
 358 1286 l 257
 317 1053 l 257
 829 761 l 257
 214 465 l 257
 173 236 l 257
71 0 m 257
 953 0 l 257
 983 175 l 257
 101 175 l 257
 71 0 l 257
EndSplineSet
EndChar

StartChar: guillemotleft
Encoding: 171 171 287
Width: 1024
VWidth: 0
Flags: HW
PickledData: "(dp1
S'org.robofab.postScriptHintData'
p2
(dp3
s."
LayerCount: 2
Fore
SplineSet
268 80 m 257
 420 150 l 257
 280 530 l 257
 554 910 l 257
 419 980 l 257
 67 530 l 257
 268 80 l 257
682 80 m 257
 832 150 l 257
 694 530 l 257
 966 910 l 257
 833 980 l 257
 481 530 l 257
 682 80 l 257
EndSplineSet
EndChar

StartChar: guillemotright
Encoding: 187 187 288
Width: 1024
VWidth: 0
Flags: HW
PickledData: "(dp1
S'org.robofab.postScriptHintData'
p2
(dp3
s."
LayerCount: 2
Fore
SplineSet
220 80 m 257
 572 530 l 257
 371 980 l 257
 221 910 l 257
 359 530 l 257
 87 150 l 257
 220 80 l 257
634 80 m 257
 986 530 l 257
 785 980 l 257
 633 910 l 257
 773 530 l 257
 499 150 l 257
 634 80 l 257
EndSplineSet
EndChar

StartChar: guilsinglleft
Encoding: 8249 8249 289
Width: 768
VWidth: 0
Flags: HW
PickledData: "(dp1
S'org.robofab.postScriptHintData'
p2
(dp3
s."
LayerCount: 2
Fore
SplineSet
375 80 m 257
 527 150 l 257
 387 530 l 257
 661 910 l 257
 526 980 l 257
 174 530 l 257
 375 80 l 257
EndSplineSet
EndChar

StartChar: guilsinglright
Encoding: 8250 8250 290
Width: 768
VWidth: 0
Flags: HW
PickledData: "(dp1
S'org.robofab.postScriptHintData'
p2
(dp3
s."
LayerCount: 2
Fore
SplineSet
248 80 m 257
 600 530 l 257
 399 980 l 257
 247 910 l 257
 387 530 l 257
 113 150 l 257
 248 80 l 257
EndSplineSet
EndChar

StartChar: h
Encoding: 104 104 291
Width: 1272
VWidth: 0
Flags: HW
PickledData: "(dp1
S'org.robofab.postScriptHintData'
p2
(dp3
s."
AnchorPoint: "top" 916 1305 basechar 0
LayerCount: 2
Fore
SplineSet
36 0 m 257
 308 0 l 257
 439 738 l 258
 457 842 581 894 679 894 c 256
 756 894 841 873 841 785 c 0
 841 776 840 766 838 756 c 258
 704 0 l 257
 976 0 l 257
 1117 795 l 258
 1121 816 1123 837 1123 857 c 0
 1123 1003 1020 1097 838 1097 c 256
 689 1097 539 1045 479 970 c 257
 576 1515 l 257
 304 1515 l 257
 36 0 l 257
EndSplineSet
EndChar

StartChar: hbar
Encoding: 295 295 292
Width: 1254
VWidth: 0
Flags: HW
PickledData: "(dp1
S'org.robofab.postScriptHintData'
p2
(dp3
s."
LayerCount: 2
Fore
SplineSet
87 1221 m 257
 817 1221 l 257
 842 1364 l 257
 112 1364 l 257
 87 1221 l 257
EndSplineSet
Refer: 291 104 N 1 0 0 1 0 0 2
EndChar

StartChar: hungarumlaut
Encoding: 733 733 294
Width: 1024
VWidth: 0
Flags: HW
PickledData: "(dp1
S'org.robofab.postScriptHintData'
p2
(dp3
s."
AnchorPoint: "top" 319 1074 mark 0
LayerCount: 2
Fore
SplineSet
74 1157 m 257
 223 1157 l 257
 520 1522 l 257
 252 1522 l 257
 74 1157 l 257
484 1157 m 257
 633 1157 l 257
 930 1522 l 257
 662 1522 l 257
 484 1157 l 257
EndSplineSet
EndChar

StartChar: hyphen
Encoding: 45 45 295
Width: 968
VWidth: 0
Flags: HW
PickledData: "(dp1
S'org.robofab.postScriptHintData'
p2
(dp3
s."
AnchorPoint: "mid" 476 569 mark 0
LayerCount: 2
Fore
SplineSet
119 494 m 257
 823 494 l 257
 849 642 l 257
 145 642 l 257
 119 494 l 257
EndSplineSet
EndChar

StartChar: infinity
Encoding: 8734 8734 308
Width: 2048
VWidth: 0
Flags: HW
PickledData: "(dp1
S'org.robofab.postScriptHintData'
p2
(dp3
s."
LayerCount: 2
Fore
SplineSet
437 360 m 256
 620 360 998 620 998 620 c 257
 998 620 1286 360 1469 360 c 256
 1631 360 1783 500 1830 765 c 256
 1838 808 1841 848 1841 885 c 0
 1841 1072 1746 1170 1611 1170 c 256
 1428 1170 1050 910 1050 910 c 257
 1050 910 762 1170 579 1170 c 256
 417 1170 265 1030 218 765 c 256
 210 722 207 682 207 645 c 0
 207 458 302 360 437 360 c 256
373 714 m 0
 373 840 434 937 556 937 c 256
 630 937 792 817 889 765 c 257
 774 713 570 593 496 593 c 256
 407 593 373 642 373 714 c 0
1675 816 m 0
 1675 690 1614 593 1492 593 c 256
 1418 593 1256 713 1159 765 c 257
 1274 817 1478 937 1552 937 c 256
 1641 937 1675 888 1675 816 c 0
EndSplineSet
EndChar

StartChar: integral
Encoding: 8747 8747 309
Width: 693
VWidth: 0
Flags: HW
PickledData: "(dp1
S'org.robofab.postScriptHintData'
p2
(dp3
s."
LayerCount: 2
Fore
SplineSet
26 -263 m 256
 254 -263 299 -125 329 43 c 258
 524 1152 l 258
 537 1227 561 1292 659 1292 c 256
 673 1292 695 1288 716 1286 c 257
 742 1433 l 257
 690 1439 658 1442 621 1442 c 256
 390 1442 346 1303 315 1126 c 258
 119 16 l 258
 106 -57 82 -114 -8 -114 c 256
 -23 -114 -49 -111 -72 -107 c 257
 -98 -254 l 257
 -45 -261 -12 -263 26 -263 c 256
EndSplineSet
EndChar

StartChar: k
Encoding: 107 107 315
Width: 1211
VWidth: 0
Flags: HW
PickledData: "(dp1
S'org.robofab.postScriptHintData'
p2
(dp3
s."
AnchorPoint: "bot" 530 0 basechar 0
AnchorPoint: "top" 885 1305 basechar 0
LayerCount: 2
Fore
SplineSet
36 0 m 257
 308 0 l 257
 374 374 l 257
 516 497 l 257
 764 0 l 257
 1061 0 l 257
 747 611 l 257
 1233 1074 l 257
 923 1074 l 257
 414 602 l 257
 576 1516 l 257
 304 1516 l 257
 36 0 l 257
EndSplineSet
EndChar

StartChar: kgreenlandic
Encoding: 312 312 318
Width: 1213
VWidth: 0
Flags: HW
PickledData: "(dp1
S'org.robofab.postScriptHintData'
p2
(dp3
s."
LayerCount: 2
Fore
SplineSet
76 0 m 257
 349 0 l 257
 417 385 l 257
 530 483 l 257
 769 0 l 257
 1095 0 l 257
 783 605 l 257
 1264 1074 l 257
 940 1074 l 257
 878 1018 517 657 455 602 c 257
 539 1074 l 257
 266 1074 l 257
 76 0 l 257
EndSplineSet
EndChar

StartChar: l
Encoding: 108 108 319
Width: 734
VWidth: 0
Flags: HW
PickledData: "(dp1
S'org.robofab.postScriptHintData'
p2
(dp3
s."
AnchorPoint: "bot" 339 0 basechar 0
AnchorPoint: "caron.alt" 382 1074 basechar 0
AnchorPoint: "top" 469 1513 basechar 0
LayerCount: 2
Fore
SplineSet
398 -12 m 258
 512 -12 l 257
 569 190 l 257
 535 190 l 258
 413 190 367 225 367 305 c 0
 367 321 369 338 372 357 c 258
 577 1515 l 257
 305 1515 l 257
 100 353 l 258
 92 311 89 273 89 239 c 0
 89 56 196 -12 398 -12 c 258
EndSplineSet
EndChar

StartChar: less
Encoding: 60 60 324
Width: 1024
VWidth: 0
Flags: HW
PickledData: "(dp1
S'org.robofab.postScriptHintData'
p2
(dp3
s."
LayerCount: 2
Fore
SplineSet
763 31 m 257
 804 262 l 257
 293 556 l 257
 908 850 l 257
 949 1081 l 257
 131 664 l 257
 92 445 l 257
 763 31 l 257
EndSplineSet
EndChar

StartChar: lessequal
Encoding: 8804 8804 325
Width: 1252
VWidth: 0
Flags: HW
PickledData: "(dp1
S'org.robofab.postScriptHintData'
p2
(dp3
s."
LayerCount: 2
Fore
SplineSet
951 239 m 257
 992 470 l 257
 441 764 l 257
 1096 1058 l 257
 1137 1289 l 257
 279 872 l 257
 240 653 l 257
 951 239 l 257
115 0 m 257
 907 0 l 257
 938 175 l 257
 146 175 l 257
 115 0 l 257
EndSplineSet
EndChar

StartChar: logicalnot
Encoding: 172 172 327
Width: 1024
VWidth: 0
Flags: HW
PickledData: "(dp1
S'org.robofab.postScriptHintData'
p2
(dp3
s."
LayerCount: 2
Fore
SplineSet
658 226 m 257
 806 226 l 257
 900 757 l 257
 176 757 l 257
 146 587 l 257
 722 587 l 257
 658 226 l 257
EndSplineSet
EndChar

StartChar: lozenge
Encoding: 9674 9674 328
Width: 1104
VWidth: 0
Flags: HW
PickledData: "(dp1
S'org.robofab.postScriptHintData'
p2
(dp3
s."
LayerCount: 2
Fore
SplineSet
333 0 m 257
 531 0 l 257
 1002 754 l 257
 797 1505 l 257
 599 1505 l 257
 102 754 l 257
 333 0 l 257
467 188 m 257
 316 754 l 257
 665 1307 l 257
 793 754 l 257
 467 188 l 257
EndSplineSet
EndChar

StartChar: lslash
Encoding: 322 322 329
Width: 708
VWidth: 0
Flags: HW
PickledData: "(dp1
S'org.robofab.postScriptHintData'
p2
(dp3
s."
LayerCount: 2
Fore
SplineSet
12 680 m 257
 628 915 l 257
 653 1059 l 257
 38 823 l 257
 12 680 l 257
EndSplineSet
Refer: 319 108 N 1 0 0 1 0 0 2
EndChar

StartChar: m
Encoding: 109 109 330
Width: 1912
VWidth: 0
Flags: HW
PickledData: "(dp1
S'org.robofab.postScriptHintData'
p2
(dp3
s."
AnchorPoint: "top" 1155 1074 basechar 0
LayerCount: 2
Fore
SplineSet
71 0 m 257
 343 0 l 257
 474 739 l 258
 492 844 628 897 726 897 c 256
 801 897 866 879 866 797 c 0
 866 786 865 775 863 762 c 258
 728 0 l 257
 1000 0 l 257
 1133 750 l 257
 1157 846 1289 897 1386 897 c 256
 1460 897 1520 880 1520 799 c 0
 1520 788 1518 776 1516 762 c 258
 1381 0 l 257
 1653 0 l 257
 1793 794 l 258
 1797 814 1798 834 1798 853 c 0
 1798 1001 1689 1097 1506 1097 c 256
 1336 1097 1217 1042 1125 964 c 257
 1086 1056 992 1097 854 1097 c 256
 675 1097 553 1011 516 978 c 257
 533 1074 l 257
 261 1074 l 257
 71 0 l 257
EndSplineSet
EndChar

StartChar: macron
Encoding: 175 175 331
Width: 511
VWidth: 0
Flags: HW
PickledData: "(dp1
S'org.robofab.postScriptHintData'
p2
(dp3
s."
AnchorPoint: "top" 212 1074 mark 0
AnchorPoint: "mid" 258 1329 mark 0
LayerCount: 2
Fore
SplineSet
-61 1251 m 257
 543 1251 l 257
 571 1408 l 257
 -33 1408 l 257
 -61 1251 l 257
EndSplineSet
EndChar

StartChar: minus
Encoding: 8722 8722 333
Width: 792
VWidth: 0
Flags: HW
PickledData: "(dp1
S'org.robofab.postScriptHintData'
p2
(dp3
s."
LayerCount: 2
Fore
SplineSet
106 439 m 257
 648 439 l 257
 680 619 l 257
 138 619 l 257
 106 439 l 257
EndSplineSet
EndChar

StartChar: mu
Encoding: 956 956 334
Width: 1246
VWidth: 0
Flags: HW
PickledData: "(dp1
S'org.robofab.postScriptHintData'
p2
(dp3
s."
LayerCount: 2
Fore
SplineSet
930 1074 m 257
 797 317 l 258
 779 217 656 166 557 166 c 256
 481 166 397 191 397 280 c 0
 397 289 398 298 400 308 c 258
 535 1074 l 257
 263 1074 l 257
 33 -236 l 257
 285 -236 l 257
 326 2 l 257
 380 -12 430 -19 475 -19 c 256
 611 -19 710 41 765 135 c 257
 747 0 l 257
 1014 0 l 257
 1203 1074 l 257
 930 1074 l 257
EndSplineSet
EndChar

StartChar: multiply
Encoding: 215 215 335
Width: 1025
VWidth: 0
Flags: HW
PickledData: "(dp1
S'org.robofab.postScriptHintData'
p2
(dp3
s."
LayerCount: 2
Fore
SplineSet
201 216 m 257
 492 458 l 257
 697 216 l 257
 830 344 l 257
 634 576 l 257
 911 806 l 257
 825 937 l 257
 534 694 l 257
 329 937 l 257
 194 806 l 257
 392 576 l 257
 113 344 l 257
 201 216 l 257
EndSplineSet
EndChar

StartChar: n
Encoding: 110 110 336
Width: 1272
VWidth: 0
Flags: HW
PickledData: "(dp1
S'org.robofab.postScriptHintData'
p2
(dp3
s."
AnchorPoint: "bot" 567 0 basechar 0
AnchorPoint: "top" 771 1074 basechar 0
LayerCount: 2
Fore
SplineSet
1149 770 m 258
 1153 796 1156 821 1156 844 c 0
 1156 995 1063 1099 870 1099 c 256
 668 1099 541 998 516 979 c 257
 532 1074 l 257
 260 1074 l 257
 71 0 l 257
 343 0 l 257
 473 735 l 258
 491 840 612 894 710 894 c 256
 787 894 877 872 877 783 c 0
 877 774 876 765 874 755 c 258
 741 0 l 257
 1013 0 l 257
 1149 770 l 258
EndSplineSet
EndChar

StartChar: nine
Encoding: 57 57 341
Width: 1379
VWidth: 0
Flags: HW
PickledData: "(dp1
S'org.robofab.postScriptHintData'
p2
(dp3
s."
LayerCount: 2
Fore
SplineSet
840 1496 m 256
 445 1496 204 1285 204 894 c 0
 204 649 356 569 624 569 c 256
 654 569 742 578 780 589 c 257
 354 0 l 257
 674 0 l 257
 1057 528 l 257
 1161 677 1246 833 1280 1024 c 256
 1287 1063 1290 1099 1290 1133 c 0
 1290 1367 1133 1496 840 1496 c 256
493 942 m 0
 493 1153 605 1282 798 1282 c 256
 927 1282 996 1219 996 1103 c 0
 996 1083 994 1062 990 1039 c 256
 957 848 888 782 713 782 c 256
 557 782 493 823 493 942 c 0
EndSplineSet
EndChar

StartChar: notequal
Encoding: 8800 8800 343
Width: 919
VWidth: 0
Flags: HW
PickledData: "(dp1
S'org.robofab.postScriptHintData'
p2
(dp3
s."
LayerCount: 2
Fore
SplineSet
43 150 m 257
 216 150 l 257
 821 1094 l 257
 648 1094 l 257
 43 150 l 257
EndSplineSet
Refer: 255 61 N 1 0 0 1 0 0 2
EndChar

StartChar: numbersign
Encoding: 35 35 345
Width: 1430
VWidth: 0
Flags: HW
PickledData: "(dp1
S'org.robofab.postScriptHintData'
p2
(dp3
s."
LayerCount: 2
Fore
SplineSet
93 0 m 257
 299 0 l 257
 466 478 l 257
 723 478 l 257
 553 0 l 257
 759 0 l 257
 925 478 l 257
 1198 478 l 257
 1223 618 l 257
 975 618 l 257
 1072 896 l 257
 1296 896 l 257
 1320 1036 l 257
 1121 1036 l 257
 1275 1477 l 257
 1077 1477 l 257
 920 1036 l 257
 661 1036 l 257
 815 1477 l 257
 617 1477 l 257
 460 1036 l 257
 180 1036 l 257
 156 896 l 257
 412 896 l 257
 313 618 l 257
 83 618 l 257
 58 478 l 257
 263 478 l 257
 93 0 l 257
515 618 m 257
 612 896 l 257
 871 896 l 257
 772 618 l 257
 515 618 l 257
EndSplineSet
EndChar

StartChar: o
Encoding: 111 111 346
Width: 1212
VWidth: 0
Flags: HW
PickledData: "(dp1
S'org.robofab.postScriptHintData'
p2
(dp3
s."
AnchorPoint: "bot" 513 0 basechar 0
AnchorPoint: "ogonek" 578 0 basechar 0
AnchorPoint: "top" 703 1074 basechar 0
LayerCount: 2
Fore
SplineSet
541 166 m 256
 431 166 369 195 369 276 c 0
 369 287 371 300 373 313 c 258
 451 760 l 258
 471 869 553 907 671 907 c 256
 779 907 843 877 843 796 c 0
 843 785 841 773 839 760 c 258
 761 313 l 258
 741 204 657 166 541 166 c 256
507 -23 m 256
 856 -23 997 112 1035 325 c 258
 1109 748 l 258
 1113 771 1115 793 1115 814 c 0
 1115 993 967 1097 705 1097 c 256
 410 1097 216 967 177 748 c 258
 103 325 l 258
 98 297 96 271 96 246 c 0
 96 78 212 -23 507 -23 c 256
EndSplineSet
Substitution2: "Single Substitution lookup 15 subtable" ordmasculine
EndChar

StartChar: oe
Encoding: 339 339 353
Width: 1780
VWidth: 0
Flags: HW
PickledData: "(dp1
S'org.robofab.postScriptHintData'
p2
(dp3
s."
LayerCount: 2
Fore
SplineSet
485 -23 m 256
 635 -23 744 22 826 90 c 257
 893 18 998 -23 1123 -23 c 256
 1413 -23 1576 45 1638 357 c 257
 1384 357 l 257
 1350 188 1284 166 1162 166 c 256
 1062 166 1000 194 1000 280 c 0
 1000 292 1001 306 1004 321 c 258
 1038 512 l 257
 1666 512 l 257
 1707 745 l 258
 1712 774 1715 800 1715 826 c 0
 1715 994 1602 1097 1319 1097 c 256
 1188 1097 1073 1061 981 977 c 257
 917 1060 815 1097 683 1097 c 256
 406 1097 200 970 161 749 c 258
 87 326 l 258
 82 298 79 271 79 245 c 0
 79 79 192 -23 485 -23 c 256
519 166 m 256
 412 166 354 195 354 275 c 0
 354 287 355 300 358 314 c 258
 437 762 l 258
 456 870 535 907 649 907 c 256
 756 907 813 878 813 800 c 0
 813 789 811 776 809 762 c 258
 730 314 l 258
 710 205 633 166 519 166 c 256
1063 655 m 257
 1081 760 l 258
 1101 874 1183 907 1292 907 c 256
 1388 907 1457 889 1457 803 c 0
 1457 792 1455 779 1453 765 c 258
 1434 655 l 257
 1063 655 l 257
EndSplineSet
EndChar

StartChar: ogonek
Encoding: 731 731 354
Width: 487
VWidth: 0
Flags: HW
PickledData: "(dp1
S'org.robofab.postScriptHintData'
p2
(dp3
s."
AnchorPoint: "ogonek" 309 0 mark 0
LayerCount: 2
Fore
SplineSet
363 -508 m 257
 401 -367 l 257
 321 -367 244 -353 244 -273 c 0
 244 -264 245 -255 247 -245 c 256
 262 -156 320 -70 375 9 c 257
 260 9 l 257
 155 -76 71 -194 53 -294 c 256
 50 -309 49 -323 49 -336 c 0
 49 -480 204 -508 349 -508 c 258
 363 -508 l 257
EndSplineSet
EndChar

StartChar: one
Encoding: 49 49 359
Width: 1379
VWidth: 0
Flags: HW
PickledData: "(dp1
S'org.robofab.postScriptHintData'
p2
(dp3
s."
LayerCount: 2
Fore
SplineSet
119 0 m 257
 1103 0 l 257
 1140 209 l 257
 814 209 l 257
 1037 1476 l 257
 832 1476 l 257
 362 1404 l 257
 350 1187 l 257
 699 1241 l 257
 517 209 l 257
 156 209 l 257
 119 0 l 257
EndSplineSet
Substitution2: "supsSuperscriptlookup11 subtable" uni00B9
EndChar

StartChar: onehalf
Encoding: 189 189 360
Width: 2579
VWidth: 0
Flags: HW
PickledData: "(dp1
S'org.robofab.postScriptHintData'
p2
(dp3
s."
LayerCount: 2
Fore
SplineSet
1590 -2 m 257
 2237 -2 l 257
 2266 160 l 257
 1829 160 l 257
 2102 386 l 258
 2240 501 2356 612 2384 767 c 256
 2388 793 2391 818 2391 841 c 0
 2391 976 2311 1071 2081 1071 c 256
 1796 1071 1688 958 1644 706 c 257
 1862 706 l 257
 1889 860 1920 911 2055 911 c 256
 2140 911 2175 879 2175 815 c 0
 2175 801 2173 786 2170 769 c 256
 2154 675 2097 608 1992 518 c 258
 1574 159 l 257
 1590 -2 l 257
73 422 m 257
 798 422 l 257
 824 569 l 257
 578 569 l 257
 738 1477 l 257
 592 1477 l 257
 247 1424 l 257
 239 1279 l 257
 498 1318 l 257
 366 569 l 257
 98 569 l 257
 73 422 l 257
746 0 m 257
 920 0 l 257
 1827 1505 l 257
 1653 1505 l 257
 746 0 l 257
EndSplineSet
Ligature2: "fracDiagonalFractionslookup12 subtable" one slash two
EndChar

StartChar: onequarter
Encoding: 188 188 361
Width: 2433
VWidth: 0
Flags: HW
PickledData: "(dp1
S'org.robofab.postScriptHintData'
p2
(dp3
s."
LayerCount: 2
Fore
SplineSet
1845 0 m 257
 2004 0 l 257
 2041 210 l 257
 2209 210 l 257
 2238 373 l 257
 2070 373 l 257
 2113 615 l 257
 1954 615 l 257
 1911 373 l 257
 1612 373 l 257
 2005 1074 l 257
 1814 1074 l 257
 1409 369 l 257
 1381 210 l 257
 1882 210 l 257
 1845 0 l 257
73 422 m 257
 798 422 l 257
 824 569 l 257
 578 569 l 257
 738 1477 l 257
 592 1477 l 257
 246 1424 l 257
 239 1279 l 257
 498 1318 l 257
 366 569 l 257
 98 569 l 257
 73 422 l 257
716 0 m 257
 890 0 l 257
 1797 1505 l 257
 1623 1505 l 257
 716 0 l 257
EndSplineSet
Ligature2: "fracDiagonalFractionslookup12 subtable" one slash four
EndChar

StartChar: uni00B9
Encoding: 185 185 362
Width: 1127
VWidth: 0
Flags: HW
PickledData: "(dp1
S'org.robofab.postScriptHintData'
p2
(dp3
s."
LayerCount: 2
Fore
SplineSet
131 624 m 257
 859 624 l 257
 883 761 l 257
 634 761 l 257
 774 1556 l 257
 639 1556 l 257
 284 1509 l 257
 276 1366 l 257
 552 1401 l 257
 439 761 l 257
 155 761 l 257
 131 624 l 257
EndSplineSet
EndChar

StartChar: ordfeminine
Encoding: 170 170 364
Width: 1024
VWidth: 0
Flags: HW
PickledData: "(dp1
S'org.robofab.postScriptHintData'
p2
(dp3
sS'com.typemytype.robofont.layerData'
p4
(dp5
s."
LayerCount: 2
Fore
SplineSet
97 785 m 256
 93 762 91 740 91 719 c 0
 91 594 165 518 299 518 c 257
 301 517 l 257
 428 517 534 591 593 656 c 257
 611 582 635 531 755 531 c 258
 840 531 l 257
 888 701 l 257
 835 701 815 716 815 760 c 0
 815 774 817 792 821 812 c 258
 884 1166 l 258
 889 1195 892 1223 892 1249 c 0
 892 1391 810 1478 591 1478 c 256
 354 1478 225 1363 194 1185 c 257
 189 1158 l 257
 394 1158 l 257
 401 1194 l 257
 413 1265 447 1316 557 1316 c 256
 640 1316 673 1289 673 1235 c 0
 673 1225 672 1215 670 1204 c 256
 649 1088 581 1087 416 1037 c 256
 170 963 117 903 97 785 c 256
403 684 m 258
 340 684 306 715 306 771 c 0
 306 780 307 790 309 801 c 256
 318 851 355 897 450 924 c 256
 527 946 602 976 634 1002 c 257
 593 770 l 257
 542 706 457 684 404 684 c 258
 403 684 l 258
EndSplineSet
EndChar

StartChar: ordmasculine
Encoding: 186 186 365
Width: 1024
VWidth: 0
Flags: HW
PickledData: "(dp1
S'org.robofab.postScriptHintData'
p2
(dp3
s."
LayerCount: 2
Fore
SplineSet
453 675 m 258
 364 675 315 700 315 770 c 0
 315 780 316 790 318 802 c 258
 386 1187 l 258
 403 1281 471 1314 567 1314 c 256
 654 1314 704 1289 704 1220 c 0
 704 1210 703 1199 701 1187 c 258
 633 802 l 258
 617 708 549 675 455 675 c 258
 453 675 l 258
428 512 m 257
 709 513 824 628 856 811 c 258
 920 1175 l 258
 924 1196 925 1215 925 1234 c 0
 925 1386 808 1475 597 1475 c 256
 358 1475 201 1363 168 1175 c 258
 104 811 l 258
 99 786 97 762 97 739 c 0
 97 597 191 512 428 512 c 257
EndSplineSet
EndChar

StartChar: oslash
Encoding: 248 248 366
Width: 1180
VWidth: 0
Flags: HW
PickledData: "(dp1
S'org.robofab.postScriptHintData'
p2
(dp3
s."
AnchorPoint: "top" 695 1074 basechar 0
LayerCount: 2
Fore
SplineSet
235 -214 m 257
 1024 1260 l 257
 956 1281 l 257
 167 -194 l 257
 235 -214 l 257
EndSplineSet
Refer: 346 111 N 1 0 0 1 0 0 2
EndChar

StartChar: p
Encoding: 112 112 369
Width: 1210
VWidth: 0
Flags: HW
PickledData: "(dp1
S'org.robofab.postScriptHintData'
p2
(dp3
s."
AnchorPoint: "top" 829 1074 basechar 0
LayerCount: 2
Fore
SplineSet
35 -410 m 257
 307 -410 l 257
 382 17 l 257
 430 -6 495 -23 580 -23 c 256
 883 -23 1050 142 1083 326 c 258
 1158 751 l 258
 1162 774 1164 796 1164 818 c 0
 1164 987 1040 1097 810 1097 c 256
 693 1097 582 1056 501 1004 c 257
 487 1074 l 257
 297 1074 l 257
 35 -410 l 257
591 166 m 256
 486 166 431 205 417 213 c 257
 528 841 l 257
 564 872 643 907 730 907 c 256
 830 907 890 873 890 791 c 0
 890 780 889 768 887 755 c 258
 810 320 l 258
 791 211 715 166 591 166 c 256
EndSplineSet
EndChar

StartChar: paragraph
Encoding: 182 182 370
Width: 1222
VWidth: 0
Flags: HW
PickledData: "(dp1
S'org.robofab.postScriptHintData'
p2
(dp3
s."
LayerCount: 2
Fore
SplineSet
317 0 m 257
 489 0 l 257
 724 1334 l 257
 955 1334 l 257
 720 0 l 257
 892 0 l 257
 1152 1476 l 257
 592 1476 l 258
 398 1476 210 1389 172 1173 c 256
 168 1150 166 1128 166 1108 c 0
 166 942 295 859 468 858 c 257
 317 0 l 257
EndSplineSet
EndChar

StartChar: parenleft
Encoding: 40 40 371
Width: 946
VWidth: 0
Flags: HW
PickledData: "(dp1
S'org.robofab.postScriptHintData'
p2
(dp3
s."
LayerCount: 2
Fore
SplineSet
629 -159 m 257
 667 56 l 257
 499 56 417 98 417 256 c 0
 417 294 422 338 431 390 c 258
 542 1020 l 258
 590 1291 691 1359 897 1359 c 257
 935 1575 l 257
 932 1575 l 258
 496 1575 320 1341 257 986 c 258
 157 420 l 258
 146 357 140 298 140 244 c 0
 140 -6 268 -159 626 -159 c 258
 629 -159 l 257
EndSplineSet
EndChar

StartChar: parenright
Encoding: 41 41 372
Width: 946
VWidth: 0
Flags: HW
PickledData: "(dp1
S'org.robofab.postScriptHintData'
p2
(dp3
s."
LayerCount: 2
Fore
SplineSet
28 -159 m 257
 31 -159 l 258
 467 -159 642 75 705 430 c 258
 805 996 l 258
 816 1059 822 1118 822 1172 c 0
 822 1422 694 1575 337 1575 c 258
 334 1575 l 257
 296 1359 l 257
 464 1359 546 1317 546 1159 c 0
 546 1121 541 1077 532 1025 c 258
 421 395 l 258
 373 125 272 57 66 57 c 257
 28 -159 l 257
EndSplineSet
EndChar

StartChar: partialdiff
Encoding: 8706 8706 373
Width: 1216
VWidth: 0
Flags: HW
PickledData: "(dp1
S'org.robofab.postScriptHintData'
p2
(dp3
s."
LayerCount: 2
Fore
SplineSet
340 -20 m 256
 733 -20 1045 387 1136 902 c 256
 1146 957 1150 1009 1150 1056 c 0
 1150 1353 968 1496 719 1496 c 256
 591 1496 440 1454 321 1389 c 257
 344 1288 l 257
 457 1343 533 1364 611 1364 c 256
 754 1364 872 1275 872 1072 c 0
 872 1037 868 999 861 958 c 258
 857 934 l 257
 392 906 82 573 36 310 c 256
 32 287 30 265 30 243 c 0
 30 98 122 -20 340 -20 c 256
381 130 m 256
 355 130 337 162 337 219 c 0
 337 237 339 259 343 282 c 256
 377 477 568 744 823 794 c 257
 752 529 568 130 381 130 c 256
EndSplineSet
EndChar

StartChar: percent
Encoding: 37 37 375
Width: 2114
VWidth: 0
Flags: HW
PickledData: "(dp1
S'org.robofab.postScriptHintData'
p2
(dp3
s."
LayerCount: 2
Fore
SplineSet
508 794 m 256
 422 794 396 840 396 912 c 0
 396 946 402 985 410 1029 c 258
 425 1118 l 257
 448 1248 473 1337 604 1337 c 256
 694 1337 720 1296 720 1228 c 0
 720 1196 714 1158 707 1116 c 258
 692 1029 l 258
 668 894 635 794 508 794 c 256
485 664 m 256
 715 664 817 814 857 1043 c 257
 867 1097 l 258
 875 1144 879 1186 879 1225 c 0
 879 1379 811 1467 627 1467 c 257
 396 1467 303 1329 262 1096 c 257
 252 1043 l 258
 243 995 239 950 239 909 c 0
 239 758 304 664 485 664 c 256
1506 111 m 256
 1419 111 1393 157 1393 230 c 0
 1393 264 1399 303 1406 346 c 258
 1422 435 l 258
 1445 565 1470 654 1602 654 c 256
 1692 654 1717 613 1717 545 c 0
 1717 513 1711 475 1704 433 c 258
 1688 346 l 257
 1665 211 1632 111 1506 111 c 256
1483 -19 m 256
 1713 -19 1813 131 1854 360 c 257
 1863 414 l 258
 1871 461 1875 505 1875 544 c 0
 1875 697 1808 784 1625 784 c 256
 1394 784 1299 646 1258 413 c 257
 1249 360 l 258
 1241 312 1236 268 1236 227 c 0
 1236 75 1302 -19 1483 -19 c 256
566 0 m 257
 744 0 l 257
 1537 1446 l 257
 1364 1446 l 257
 566 0 l 257
EndSplineSet
EndChar

StartChar: period
Encoding: 46 46 376
Width: 634
VWidth: 0
Flags: HW
PickledData: "(dp1
S'org.robofab.postScriptHintData'
p2
(dp3
s."
LayerCount: 2
Fore
SplineSet
139 0 m 257
 437 0 l 257
 487 284 l 257
 189 284 l 257
 139 0 l 257
EndSplineSet
EndChar

StartChar: periodcentered
Encoding: 183 183 377
Width: 512
VWidth: 0
Flags: HW
PickledData: "(dp1
S'org.robofab.postScriptHintData'
p2
(dp3
s."
AnchorPoint: "mid" 1 902 mark 0
LayerCount: 2
Fore
SplineSet
242 780 m 257
 490 780 l 257
 534 1025 l 257
 286 1025 l 257
 242 780 l 257
EndSplineSet
EndChar

StartChar: perthousand
Encoding: 8240 8240 378
Width: 2769
VWidth: 0
Flags: HW
PickledData: "(dp1
S'org.robofab.postScriptHintData'
p2
(dp3
s."
LayerCount: 2
Fore
SplineSet
441 788 m 256
 354 788 328 835 328 907 c 0
 328 941 333 980 341 1023 c 258
 357 1112 l 258
 380 1242 405 1331 537 1331 c 256
 627 1331 652 1290 652 1222 c 0
 652 1190 646 1152 639 1110 c 258
 623 1023 l 258
 599 888 568 788 441 788 c 256
418 658 m 257
 648 658 748 808 789 1037 c 257
 798 1091 l 258
 806 1138 810 1181 810 1220 c 0
 810 1374 743 1461 559 1461 c 256
 328 1461 234 1323 193 1090 c 257
 184 1037 l 258
 176 989 171 945 171 904 c 0
 171 752 237 658 418 658 c 257
1438 111 m 256
 1351 111 1326 157 1326 229 c 0
 1326 263 1331 303 1339 346 c 258
 1355 435 l 257
 1377 565 1402 654 1534 654 c 256
 1624 654 1650 612 1650 544 c 0
 1650 512 1644 475 1637 433 c 258
 1622 346 l 258
 1598 211 1565 111 1438 111 c 256
1416 -19 m 256
 1646 -19 1747 131 1787 360 c 257
 1797 414 l 258
 1805 461 1809 503 1809 542 c 0
 1809 696 1741 784 1557 784 c 256
 1326 784 1232 646 1191 413 c 257
 1181 360 l 258
 1173 312 1168 268 1168 228 c 0
 1168 76 1234 -19 1416 -19 c 256
2192 111 m 256
 2105 111 2080 157 2080 229 c 0
 2080 263 2085 303 2093 346 c 258
 2109 435 l 257
 2131 565 2156 654 2288 654 c 256
 2378 654 2404 612 2404 544 c 0
 2404 512 2398 475 2391 433 c 258
 2376 346 l 258
 2352 211 2319 111 2192 111 c 256
2170 -19 m 256
 2400 -19 2501 131 2541 360 c 257
 2551 414 l 258
 2559 461 2563 503 2563 542 c 0
 2563 696 2495 784 2311 784 c 256
 2080 784 1986 646 1945 413 c 257
 1935 360 l 258
 1927 312 1922 268 1922 228 c 0
 1922 76 1988 -19 2170 -19 c 256
499 0 m 257
 677 0 l 257
 1470 1446 l 257
 1297 1446 l 257
 499 0 l 257
EndSplineSet
EndChar

StartChar: pi
Encoding: 960 960 379
Width: 1257
VWidth: 0
Flags: HW
PickledData: "(dp1
S'org.robofab.postScriptHintData'
p2
(dp3
s."
LayerCount: 2
Fore
SplineSet
84 801 m 257
 151 845 193 881 302 891 c 257
 145 0 l 257
 397 0 l 257
 555 893 l 257
 820 893 l 257
 714 297 l 258
 707 258 704 223 704 192 c 0
 704 22 808 -20 997 -20 c 258
 1014 -20 l 257
 1090 156 l 257
 998 175 964 181 964 248 c 0
 964 271 968 302 975 343 c 258
 1072 893 l 257
 1254 893 l 257
 1285 1074 l 257
 333 1074 l 258
 230 1074 164 1032 117 986 c 257
 84 801 l 257
EndSplineSet
EndChar

StartChar: plus
Encoding: 43 43 380
Width: 966
VWidth: 0
Flags: HW
PickledData: "(dp1
S'org.robofab.postScriptHintData'
p2
(dp3
s."
LayerCount: 2
Fore
SplineSet
329 156 m 257
 493 156 l 257
 552 487 l 257
 821 487 l 257
 849 649 l 257
 580 649 l 257
 637 968 l 257
 473 968 l 257
 416 649 l 257
 147 649 l 257
 119 487 l 257
 388 487 l 257
 329 156 l 257
EndSplineSet
EndChar

StartChar: plusminus
Encoding: 177 177 381
Width: 1024
VWidth: 0
Flags: HW
PickledData: "(dp1
S'org.robofab.postScriptHintData'
p2
(dp3
s."
LayerCount: 2
Fore
SplineSet
397 326 m 257
 563 326 l 257
 609 591 l 257
 867 591 l 257
 896 755 l 257
 638 755 l 257
 685 1018 l 257
 519 1018 l 257
 472 755 l 257
 214 755 l 257
 185 591 l 257
 443 591 l 257
 397 326 l 257
81 0 m 257
 763 0 l 257
 792 165 l 257
 110 165 l 257
 81 0 l 257
EndSplineSet
EndChar

StartChar: product
Encoding: 8719 8719 382
Width: 1776
VWidth: 0
Flags: HW
PickledData: "(dp1
S'org.robofab.postScriptHintData'
p2
(dp3
s."
LayerCount: 2
Fore
SplineSet
581 319 m 257
 712 319 l 257
 771 652 l 257
 949 652 l 258
 1174 652 1249 764 1270 908 c 256
 1273 929 1275 948 1275 966 c 0
 1275 1098 1188 1153 1050 1153 c 258
 728 1153 l 257
 581 319 l 257
787 742 m 257
 843 1062 l 257
 1038 1062 l 258
 1124 1062 1142 1008 1142 956 c 0
 1142 936 1140 917 1137 901 c 258
 1133 877 l 257
 1120 814 1087 742 973 742 c 258
 787 742 l 257
777 82 m 256
 456 82 250 296 250 597 c 0
 250 637 253 679 261 722 c 256
 325 1086 639 1361 1003 1361 c 256
 1326 1361 1529 1148 1529 848 c 0
 1529 808 1526 765 1518 722 c 256
 1454 357 1143 82 777 82 c 256
758 -14 m 256
 1174 -14 1550 303 1624 722 c 256
 1632 769 1636 815 1636 859 c 0
 1636 1206 1387 1456 1018 1456 c 256
 605 1456 226 1139 152 722 c 256
 144 675 140 629 140 585 c 0
 140 236 391 -14 758 -14 c 256
EndSplineSet
EndChar

StartChar: q
Encoding: 113 113 383
Width: 1210
VWidth: 0
Flags: HW
PickledData: "(dp1
S'org.robofab.postScriptHintData'
p2
(dp3
s."
LayerCount: 2
Fore
SplineSet
637 -410 m 257
 909 -410 l 257
 1171 1074 l 257
 968 1074 l 257
 937 1005 l 257
 885 1056 788 1097 676 1097 c 256
 415 1097 233 960 196 750 c 258
 119 317 l 258
 115 293 113 270 113 247 c 0
 113 97 210 -23 472 -23 c 256
 554 -23 644 -4 715 33 c 257
 637 -410 l 257
557 166 m 256
 450 166 387 193 387 274 c 0
 387 285 388 296 390 308 c 258
 469 756 l 258
 488 865 571 907 687 907 c 256
 784 907 839 878 857 839 c 257
 748 220 l 257
 744 213 671 166 557 166 c 256
EndSplineSet
EndChar

StartChar: question
Encoding: 63 63 384
Width: 1244
VWidth: 0
Flags: HW
PickledData: "(dp1
S'org.robofab.postScriptHintData'
p2
(dp3
s."
LayerCount: 2
Fore
SplineSet
389 431 m 257
 618 431 l 257
 826 582 l 258
 1035 733 1138 862 1174 1067 c 256
 1181 1109 1186 1150 1186 1190 c 0
 1186 1361 1098 1501 751 1501 c 256
 318 1501 228 1309 180 1036 c 258
 167 962 l 257
 441 962 l 257
 456 1047 l 258
 481 1188 510 1279 712 1279 c 256
 854 1279 888 1214 888 1134 c 0
 888 1109 885 1082 880 1056 c 256
 859 936 808 860 691 740 c 258
 389 431 l 257
297 0 m 257
 546 0 l 257
 589 245 l 257
 340 245 l 257
 297 0 l 257
EndSplineSet
EndChar

StartChar: quotedbl
Encoding: 34 34 386
Width: 1024
VWidth: 0
Flags: HW
PickledData: "(dp1
S'org.robofab.postScriptHintData'
p2
(dp3
s."
LayerCount: 2
Fore
SplineSet
220 872 m 257
 339 872 l 257
 508 1516 l 257
 255 1516 l 257
 220 872 l 257
573 872 m 257
 692 872 l 257
 883 1516 l 257
 629 1516 l 257
 573 872 l 257
EndSplineSet
EndChar

StartChar: quotedblbase
Encoding: 8222 8222 387
Width: 1373
VWidth: 0
Flags: HW
PickledData: "(dp1
S'org.robofab.postScriptHintData'
p2
(dp3
s."
LayerCount: 2
Fore
SplineSet
862 -389 m 257
 934 -333 1101 -148 1136 53 c 257
 1176 276 l 257
 854 276 l 257
 805 0 l 257
 970 0 l 257
 946 -138 825 -285 763 -343 c 257
 862 -389 l 257
363 -389 m 257
 435 -333 602 -148 637 53 c 257
 677 276 l 257
 355 276 l 257
 306 0 l 257
 471 0 l 257
 447 -138 326 -285 264 -343 c 257
 363 -389 l 257
EndSplineSet
EndChar

StartChar: quotedblleft
Encoding: 8220 8220 388
Width: 1310
VWidth: 0
Flags: HW
PickledData: "(dp1
S'org.robofab.postScriptHintData'
p2
(dp3
s."
LayerCount: 2
Fore
SplineSet
511 1515 m 257
 439 1459 272 1274 237 1073 c 257
 197 850 l 257
 519 850 l 257
 568 1126 l 257
 403 1126 l 257
 427 1264 548 1411 610 1469 c 257
 511 1515 l 257
987 1515 m 257
 915 1459 748 1274 713 1073 c 257
 673 850 l 257
 995 850 l 257
 1044 1126 l 257
 879 1126 l 257
 903 1264 1024 1411 1086 1469 c 257
 987 1515 l 257
EndSplineSet
EndChar

StartChar: quotedblright
Encoding: 8221 8221 389
Width: 1350
VWidth: 0
Flags: HW
PickledData: "(dp1
S'org.robofab.postScriptHintData'
p2
(dp3
s."
LayerCount: 2
Fore
SplineSet
363 851 m 257
 435 907 602 1092 637 1293 c 257
 677 1516 l 257
 355 1516 l 257
 306 1240 l 257
 471 1240 l 257
 447 1102 326 955 264 897 c 257
 363 851 l 257
839 851 m 257
 911 907 1078 1092 1113 1293 c 257
 1153 1516 l 257
 831 1516 l 257
 782 1240 l 257
 947 1240 l 257
 923 1102 802 955 740 897 c 257
 839 851 l 257
EndSplineSet
EndChar

StartChar: quoteleft
Encoding: 8216 8216 390
Width: 874
VWidth: 0
Flags: HW
PickledData: "(dp1
S'org.robofab.postScriptHintData'
p2
(dp3
s."
LayerCount: 2
Fore
SplineSet
551 1503 m 257
 479 1447 312 1262 277 1061 c 257
 237 838 l 257
 559 838 l 257
 608 1114 l 257
 443 1114 l 257
 467 1252 588 1399 650 1457 c 257
 551 1503 l 257
EndSplineSet
EndChar

StartChar: quoteright
Encoding: 8217 8217 391
Width: 834
VWidth: 0
Flags: HW
PickledData: "(dp1
S'org.robofab.postScriptHintData'
p2
(dp3
s."
LayerCount: 2
Fore
SplineSet
323 839 m 257
 395 895 562 1080 597 1281 c 257
 637 1504 l 257
 315 1504 l 257
 266 1228 l 257
 431 1228 l 257
 407 1090 286 943 224 885 c 257
 323 839 l 257
EndSplineSet
EndChar

StartChar: quotesinglbase
Encoding: 8218 8218 392
Width: 874
VWidth: 0
Flags: HW
PickledData: "(dp1
S'org.robofab.postScriptHintData'
p2
(dp3
s."
LayerCount: 2
Fore
SplineSet
363 -389 m 257
 435 -333 602 -148 637 53 c 257
 677 276 l 257
 355 276 l 257
 306 0 l 257
 471 0 l 257
 447 -138 326 -285 264 -343 c 257
 363 -389 l 257
EndSplineSet
EndChar

StartChar: quotesingle
Encoding: 39 39 393
Width: 769
VWidth: 0
Flags: HW
PickledData: "(dp1
S'org.robofab.postScriptHintData'
p2
(dp3
s."
LayerCount: 2
Fore
SplineSet
280 872 m 257
 399 872 l 257
 568 1516 l 257
 315 1516 l 257
 280 872 l 257
EndSplineSet
EndChar

StartChar: r
Encoding: 114 114 394
Width: 855
VWidth: 0
Flags: HW
PickledData: "(dp1
S'org.robofab.postScriptHintData'
p2
(dp3
s."
AnchorPoint: "bot" 205 0 basechar 0
AnchorPoint: "top" 635 1074 basechar 0
LayerCount: 2
Fore
SplineSet
64 0 m 257
 336 0 l 257
 463 720 l 257
 499 806 721 852 860 859 c 257
 907 1090 l 257
 900 1091 892 1091 883 1091 c 256
 781 1091 566 1037 503 946 c 257
 525 1074 l 257
 253 1074 l 257
 64 0 l 257
EndSplineSet
EndChar

StartChar: radical
Encoding: 8730 8730 396
Width: 1298
VWidth: 0
Flags: HW
PickledData: "(dp1
S'org.robofab.postScriptHintData'
p2
(dp3
s."
LayerCount: 2
Fore
SplineSet
-44 512 m 257
 75 512 l 257
 294 0 l 257
 541 0 l 257
 1400 1506 l 257
 1205 1506 l 257
 462 229 l 257
 316 623 l 257
 -25 623 l 257
 -44 512 l 257
EndSplineSet
EndChar

StartChar: registered
Encoding: 174 174 400
Width: 1776
VWidth: 0
Flags: HW
PickledData: "(dp1
S'org.robofab.postScriptHintData'
p2
(dp3
s."
LayerCount: 2
Fore
SplineSet
1096 666 m 257
 1207 695 1296 796 1296 966 c 0
 1296 1098 1209 1153 1071 1153 c 258
 668 1153 l 257
 521 319 l 257
 652 319 l 257
 711 652 l 257
 970 652 l 257
 1091 319 l 257
 1219 319 l 257
 1096 666 l 257
727 742 m 257
 783 1062 l 257
 1059 1062 l 258
 1145 1062 1163 1008 1163 956 c 0
 1163 936 1161 917 1158 901 c 258
 1154 877 l 257
 1141 814 1108 742 994 742 c 258
 727 742 l 257
777 82 m 256
 456 82 250 296 250 597 c 0
 250 637 253 679 261 722 c 256
 325 1086 639 1361 1003 1361 c 256
 1326 1361 1529 1148 1529 848 c 0
 1529 808 1526 765 1518 722 c 256
 1454 357 1143 82 777 82 c 256
758 -14 m 256
 1174 -14 1550 303 1624 722 c 256
 1632 769 1636 815 1636 859 c 0
 1636 1206 1387 1456 1018 1456 c 256
 605 1456 226 1139 152 722 c 256
 144 675 140 629 140 585 c 0
 140 236 391 -14 758 -14 c 256
EndSplineSet
EndChar

StartChar: ring
Encoding: 730 730 401
Width: 592
VWidth: 0
Flags: HW
PickledData: "(dp1
S'org.robofab.postScriptHintData'
p2
(dp3
s."
AnchorPoint: "top" 241 1074 mark 0
LayerCount: 2
Fore
SplineSet
274 1271 m 256
 216 1271 174 1290 174 1357 c 0
 174 1368 176 1381 178 1395 c 256
 195 1491 250 1518 317 1518 c 256
 375 1518 418 1497 418 1430 c 0
 418 1419 416 1407 414 1393 c 256
 397 1297 341 1271 274 1271 c 256
333 1606 m 256
 179 1606 62 1513 62 1346 c 0
 62 1240 134 1181 259 1181 c 256
 412 1181 530 1275 530 1442 c 0
 530 1548 457 1606 333 1606 c 256
EndSplineSet
EndChar

StartChar: s
Encoding: 115 115 403
Width: 1048
VWidth: 0
Flags: HW
PickledData: "(dp1
S'org.robofab.postScriptHintData'
p2
(dp3
sS'com.typemytype.robofont.layerData'
p4
(dp5
s."
AnchorPoint: "bot" 439 0 basechar 0
AnchorPoint: "top" 669 1074 basechar 0
LayerCount: 2
Fore
SplineSet
446 -20 m 256
 693 -20 907 98 907 390 c 0
 907 506 853 580 714 626 c 258
 504 696 l 258
 465 709 445 734 445 770 c 0
 445 777 446 784 447 792 c 256
 459 861 494 907 618 907 c 256
 720 907 848 870 905 837 c 257
 999 1006 l 257
 900 1060 764 1094 631 1094 c 256
 419 1094 226 1011 186 785 c 256
 181 760 179 736 179 713 c 0
 179 610 228 532 356 489 c 258
 578 415 l 258
 633 397 652 366 652 330 c 0
 652 322 652 315 650 307 c 256
 641 252 608 166 480 166 c 256
 374 166 246 197 140 246 c 257
 52 61 l 257
 179 11 318 -20 446 -20 c 256
EndSplineSet
EndChar

StartChar: section
Encoding: 167 167 411
Width: 1085
VWidth: 0
Flags: HW
PickledData: "(dp1
S'org.robofab.postScriptHintData'
p2
(dp3
s."
LayerCount: 2
Fore
SplineSet
612 311 m 0
 612 224 534 176 425 176 c 256
 341 176 238 207 138 281 c 257
 14 112 l 257
 98 32 240 -22 422 -22 c 256
 679 -22 833 123 865 304 c 256
 869 328 871 350 871 369 c 0
 871 429 852 469 816 505 c 257
 895 568 946 642 959 716 c 256
 961 728 962 741 962 753 c 0
 962 838 910 920 791 981 c 258
 552 1104 l 258
 511 1126 485 1145 485 1185 c 0
 485 1269 559 1308 652 1308 c 256
 733 1308 831 1279 925 1218 c 257
 1037 1377 l 257
 976 1431 847 1497 663 1497 c 256
 434 1497 267 1403 230 1192 c 256
 227 1173 225 1156 225 1140 c 0
 225 1080 247 1038 288 999 c 257
 212 949 157 872 143 792 c 256
 140 778 139 765 139 751 c 0
 139 672 183 594 291 537 c 258
 529 411 l 258
 589 379 612 350 612 311 c 0
710 579 m 257
 402 733 l 257
 353 756 335 783 335 822 c 0
 335 872 371 925 396 941 c 257
 671 797 l 257
 734 768 749 731 749 692 c 0
 749 644 737 611 710 579 c 257
EndSplineSet
EndChar

StartChar: seven
Encoding: 55 55 413
Width: 1379
VWidth: 0
Flags: HW
PickledData: "(dp1
S'org.robofab.postScriptHintData'
p2
(dp3
s."
LayerCount: 2
Fore
SplineSet
224 0 m 257
 538 0 l 257
 1316 1270 l 257
 1352 1476 l 257
 354 1476 l 257
 313 1244 l 257
 987 1244 l 257
 224 0 l 257
EndSplineSet
EndChar

StartChar: six
Encoding: 54 54 414
Width: 1379
VWidth: 0
Flags: HW
PickledData: "(dp1
S'org.robofab.postScriptHintData'
p2
(dp3
s."
LayerCount: 2
Fore
SplineSet
579 -20 m 256
 962 -20 1216 206 1216 593 c 0
 1216 839 1069 930 803 930 c 257
 773 930 680 915 642 904 c 257
 1065 1477 l 257
 745 1477 l 257
 365 965 l 257
 260 816 174 650 140 459 c 256
 134 424 131 390 131 358 c 0
 131 122 296 -20 579 -20 c 256
939 539 m 0
 939 333 810 199 632 199 c 256
 497 199 419 275 419 399 c 0
 419 418 420 437 424 458 c 256
 454 629 546 726 721 726 c 256
 880 726 939 656 939 539 c 0
EndSplineSet
EndChar

StartChar: slash
Encoding: 47 47 415
Width: 1024
VWidth: 0
Flags: HW
PickledData: "(dp1
S'org.robofab.postScriptHintData'
p2
(dp3
s."
LayerCount: 2
Fore
SplineSet
-28 0 m 257
 215 0 l 257
 1052 1516 l 257
 809 1516 l 257
 -28 0 l 257
EndSplineSet
EndChar

StartChar: softhyphen
Encoding: 173 173 416
Width: 968
VWidth: 0
Flags: HW
AnchorPoint: "mid" 476 569 mark 0
LayerCount: 2
Fore
SplineSet
119 494 m 257
 823 494 l 257
 849 642 l 257
 145 642 l 257
 119 494 l 257
EndSplineSet
EndChar

StartChar: sterling
Encoding: 163 163 418
Width: 1285
VWidth: 0
Flags: HW
PickledData: "(dp1
S'org.robofab.postScriptHintData'
p2
(dp3
s."
LayerCount: 2
Fore
SplineSet
72 0 m 257
 990 0 l 257
 1030 226 l 257
 422 226 l 257
 526 621 l 257
 1019 621 l 257
 1053 812 l 257
 577 812 l 257
 637 1044 l 257
 670 1180 731 1281 887 1281 c 256
 958 1281 1042 1261 1139 1214 c 257
 1246 1415 l 257
 1177 1467 1048 1515 905 1515 c 256
 574 1515 410 1344 345 1061 c 257
 281 812 l 257
 144 812 l 257
 110 621 l 257
 232 621 l 257
 72 0 l 257
EndSplineSet
EndChar

StartChar: summation
Encoding: 8721 8721 419
Width: 1196
VWidth: 0
Flags: HW
PickledData: "(dp1
S'org.robofab.postScriptHintData'
p2
(dp3
s."
LayerCount: 2
Fore
SplineSet
953 0 m 257
 994 232 l 257
 367 232 l 257
 899 718 l 257
 917 817 l 257
 558 1246 l 257
 1173 1246 l 257
 1213 1476 l 257
 259 1476 l 257
 218 1243 l 257
 599 762 l 257
 40 235 l 257
 -1 0 l 257
 953 0 l 257
EndSplineSet
EndChar

StartChar: t
Encoding: 116 116 420
Width: 860
VWidth: 0
Flags: HW
PickledData: "(dp1
S'org.robofab.postScriptHintData'
p2
(dp3
s."
AnchorPoint: "bot" 351 24 basechar 0
AnchorPoint: "mid" 363 620 basechar 0
AnchorPoint: "top" 522 1408 basechar 0
AnchorPoint: "caron.alt" 467 1074 basechar 0
LayerCount: 2
Fore
SplineSet
521 -12 m 258
 618 -12 l 257
 663 190 l 257
 601 190 l 258
 462 190 422 212 422 284 c 0
 422 305 426 330 431 360 c 258
 527 901 l 257
 782 901 l 257
 812 1074 l 257
 557 1074 l 257
 618 1419 l 257
 379 1419 l 257
 293 1074 l 257
 115 1074 l 257
 85 901 l 257
 255 901 l 257
 156 341 l 258
 148 295 144 255 144 219 c 0
 144 41 251 -12 521 -12 c 258
EndSplineSet
EndChar

StartChar: thorn
Encoding: 254 254 425
Width: 1212
VWidth: 0
Flags: HW
PickledData: "(dp1
S'org.robofab.postScriptHintData'
p2
(dp3
s."
LayerCount: 2
Fore
SplineSet
-12 -410 m 257
 261 -410 l 257
 336 17 l 257
 385 -6 449 -24 534 -24 c 256
 837 -24 1008 142 1040 326 c 258
 1115 751 l 258
 1119 774 1121 796 1121 817 c 0
 1121 986 995 1095 764 1095 c 256
 673 1095 585 1071 516 1036 c 257
 601 1516 l 257
 328 1516 l 257
 -12 -410 l 257
546 165 m 256
 441 165 385 205 371 213 c 257
 482 841 l 257
 519 872 597 906 685 906 c 256
 785 906 846 871 846 789 c 0
 846 778 845 767 843 755 c 258
 766 320 l 258
 747 211 669 165 546 165 c 256
EndSplineSet
EndChar

StartChar: three
Encoding: 51 51 426
Width: 1379
VWidth: 0
Flags: HW
PickledData: "(dp1
S'org.robofab.postScriptHintData'
p2
(dp3
s."
LayerCount: 2
Fore
SplineSet
571 -20 m 256
 899 -20 1110 139 1161 426 c 256
 1167 459 1170 489 1170 518 c 0
 1170 653 1107 745 988 780 c 257
 1137 811 1236 926 1267 1101 c 256
 1272 1130 1275 1158 1275 1184 c 0
 1275 1385 1123 1496 841 1496 c 257
 531 1496 328 1331 273 1033 c 257
 552 1033 l 257
 578 1187 668 1272 805 1272 c 256
 920 1272 982 1222 982 1130 c 0
 982 1117 981 1102 978 1087 c 256
 954 952 881 877 662 877 c 257
 626 678 l 257
 813 678 877 619 877 509 c 0
 877 488 874 464 870 439 c 256
 842 276 751 201 613 201 c 256
 491 201 435 260 435 368 c 0
 435 389 437 412 441 436 c 257
 162 436 l 257
 156 400 154 365 154 333 c 0
 154 105 293 -20 571 -20 c 256
EndSplineSet
Substitution2: "supsSuperscriptlookup11 subtable" uni00B3
EndChar

StartChar: threequarters
Encoding: 190 190 427
Width: 2882
VWidth: 0
Flags: HW
PickledData: "(dp1
S'org.robofab.postScriptHintData'
p2
(dp3
s."
LayerCount: 2
Fore
SplineSet
505 1156 m 257
 530 1308 571 1344 715 1344 c 256
 819 1344 857 1311 857 1248 c 0
 857 1236 856 1223 853 1209 c 256
 835 1106 821 1059 616 1059 c 257
 591 917 l 257
 741 917 785 888 785 812 c 0
 785 795 783 775 779 753 c 256
 761 651 726 591 598 591 c 256
 484 591 427 606 427 704 c 0
 427 724 430 746 434 773 c 257
 249 773 l 257
 243 736 240 703 240 673 c 0
 240 509 330 437 557 437 c 256
 833 437 937 582 966 744 c 256
 970 770 973 795 973 818 c 0
 973 901 940 963 845 990 c 257
 985 1018 1023 1120 1040 1219 c 256
 1044 1240 1046 1260 1046 1279 c 0
 1046 1416 948 1496 750 1496 c 257
 521 1496 368 1423 320 1156 c 257
 505 1156 l 257
1885 0 m 257
 2044 0 l 257
 2081 210 l 257
 2249 210 l 257
 2278 373 l 257
 2110 373 l 257
 2153 615 l 257
 1994 615 l 257
 1951 373 l 257
 1652 373 l 257
 2045 1074 l 257
 1854 1074 l 257
 1449 369 l 257
 1421 210 l 257
 1922 210 l 257
 1885 0 l 257
756 0 m 257
 930 0 l 257
 1837 1505 l 257
 1663 1505 l 257
 756 0 l 257
EndSplineSet
Ligature2: "fracDiagonalFractionslookup12 subtable" three slash four
EndChar

StartChar: uni00B3
Encoding: 179 179 428
Width: 927
VWidth: 0
Flags: HW
PickledData: "(dp1
S'org.robofab.postScriptHintData'
p2
(dp3
s."
LayerCount: 2
Fore
SplineSet
572 929 m 0
 572 817 521 760 407 760 c 256
 326 760 294 791 294 862 c 0
 294 878 296 897 299 918 c 257
 109 918 l 257
 105 892 103 868 103 845 c 0
 103 684 207 608 386 608 c 256
 588 608 733 689 766 874 c 256
 770 896 772 917 772 936 c 0
 772 1023 731 1079 639 1104 c 257
 765 1128 837 1238 837 1377 c 0
 837 1525 718 1582 552 1582 c 257
 344 1582 215 1485 177 1276 c 257
 366 1276 l 257
 385 1386 422 1432 525 1432 c 256
 612 1432 639 1395 639 1344 c 0
 639 1333 638 1322 636 1310 c 256
 619 1212 577 1174 402 1174 c 257
 377 1034 l 257
 524 1034 572 1006 572 929 c 0
EndSplineSet
EndChar

StartChar: tilde
Encoding: 732 732 429
Width: 759
VWidth: 0
Flags: HW
PickledData: "(dp1
S'org.robofab.postScriptHintData'
p2
(dp3
s."
AnchorPoint: "top" 334 1074 mark 0
LayerCount: 2
Fore
SplineSet
245 1231 m 257
 398 1231 456 1334 510 1334 c 256
 536 1334 553 1317 553 1279 c 0
 553 1270 552 1259 550 1247 c 257
 668 1247 l 257
 674 1279 676 1308 676 1334 c 0
 676 1457 564 1454 514 1507 c 257
 360 1507 306 1405 256 1405 c 256
 227 1405 206 1420 206 1461 c 0
 206 1470 207 1480 209 1491 c 257
 91 1491 l 257
 85 1459 83 1430 83 1404 c 0
 83 1281 195 1284 245 1231 c 257
EndSplineSet
EndChar

StartChar: trademark
Encoding: 8482 8482 430
Width: 1843
VWidth: 0
Flags: HW
PickledData: "(dp1
S'org.robofab.postScriptHintData'
p2
(dp3
s."
LayerCount: 2
Fore
SplineSet
765 766 m 257
 930 766 l 257
 1013 1239 l 257
 1118 931 l 257
 1279 931 l 257
 1485 1239 l 257
 1402 766 l 257
 1569 766 l 257
 1689 1446 l 257
 1473 1446 l 257
 1226 1103 l 257
 1103 1446 l 257
 885 1446 l 257
 765 766 l 257
255 766 m 257
 450 766 l 257
 545 1302 l 257
 727 1302 l 257
 752 1446 l 257
 193 1446 l 257
 168 1302 l 257
 350 1302 l 257
 255 766 l 257
EndSplineSet
EndChar

StartChar: two
Encoding: 50 50 431
Width: 1379
VWidth: 0
Flags: HW
PickledData: "(dp1
S'org.robofab.postScriptHintData'
p2
(dp3
s."
LayerCount: 2
Fore
SplineSet
145 0 m 257
 1033 0 l 257
 1075 235 l 257
 514 235 l 257
 873 526 l 258
 1088 700 1196 843 1234 1060 c 256
 1240 1096 1244 1130 1244 1163 c 0
 1244 1361 1123 1496 841 1496 c 256
 450 1496 306 1337 245 992 c 257
 545 992 l 257
 582 1200 651 1267 809 1267 c 256
 899 1267 953 1215 953 1117 c 0
 953 1099 951 1079 947 1058 c 256
 927 947 882 864 736 737 c 258
 149 226 l 257
 145 0 l 257
EndSplineSet
Substitution2: "supsSuperscriptlookup11 subtable" uni00B2
EndChar

StartChar: uni00B2
Encoding: 178 178 432
Width: 1005
VWidth: 0
Flags: HW
PickledData: "(dp1
S'org.robofab.postScriptHintData'
p2
(dp3
s."
LayerCount: 2
Fore
SplineSet
105 624 m 257
 744 624 l 257
 770 773 l 257
 342 773 l 257
 620 971 l 258
 774 1081 856 1163 879 1295 c 256
 883 1315 884 1336 884 1355 c 0
 884 1486 798 1582 581 1582 c 256
 319 1582 202 1487 161 1256 c 257
 362 1256 l 257
 387 1397 440 1435 564 1435 c 256
 656 1435 693 1399 693 1334 c 0
 693 1322 692 1308 689 1294 c 256
 676 1221 641 1177 522 1087 c 258
 107 772 l 257
 105 624 l 257
EndSplineSet
EndChar

StartChar: u
Encoding: 117 117 433
Width: 1269
VWidth: 0
Flags: HW
PickledData: "(dp1
S'org.robofab.postScriptHintData'
p2
(dp3
s."
AnchorPoint: "ogonek" 877 0 basechar 0
AnchorPoint: "top" 740 1074 basechar 0
LayerCount: 2
Fore
SplineSet
121 291 m 258
 117 270 115 249 115 229 c 0
 115 76 227 -24 422 -24 c 256
 563 -24 709 34 765 118 c 257
 752 0 l 257
 1008 0 l 257
 1198 1074 l 257
 926 1074 l 257
 798 350 l 258
 777 230 655 182 556 182 c 256
 480 182 397 216 397 306 c 0
 397 315 398 325 400 335 c 258
 531 1074 l 257
 259 1074 l 257
 121 291 l 258
EndSplineSet
EndChar

StartChar: underscore
Encoding: 95 95 444
Width: 904
VWidth: 0
Flags: HW
PickledData: "(dp1
S'org.robofab.postScriptHintData'
p2
(dp3
s."
LayerCount: 2
Fore
SplineSet
-7 -32 m 257
 876 -32 l 257
 906 143 l 257
 23 143 l 257
 -7 -32 l 257
EndSplineSet
EndChar

StartChar: uni0307
Encoding: 775 775 457
Width: 600
VWidth: 0
Flags: HW
PickledData: "(dp1
S'org.robofab.postScriptHintData'
p2
(dp3
s."
AnchorPoint: "top" 228 1060 mark 0
LayerCount: 2
Fore
SplineSet
168 1327 m 257
 361 1327 l 257
 397 1535 l 257
 204 1535 l 257
 168 1327 l 257
EndSplineSet
EndChar

StartChar: uni030F
Encoding: 783 783 458
Width: 1024
VWidth: 0
Flags: HW
PickledData: "(dp1
S'org.robofab.postScriptHintData'
p2
(dp3
s."
AnchorPoint: "top" 591 1074 mark 0
LayerCount: 2
Fore
SplineSet
717 1157 m 257
 866 1157 l 257
 816 1522 l 257
 548 1522 l 257
 717 1157 l 257
307 1157 m 257
 456 1157 l 257
 406 1522 l 257
 138 1522 l 257
 307 1157 l 257
EndSplineSet
EndChar

StartChar: uni0311
Encoding: 785 785 459
Width: 575
VWidth: 0
Flags: HW
PickledData: "(dp1
S'org.robofab.postScriptHintData'
p2
(dp3
s."
AnchorPoint: "top" 253 1074 mark 0
LayerCount: 2
Fore
SplineSet
11 1217 m 257
 155 1217 l 257
 169 1293 229 1317 285 1317 c 256
 335 1317 381 1298 381 1241 c 0
 381 1234 381 1226 379 1217 c 257
 523 1217 l 257
 527 1241 529 1264 529 1284 c 0
 529 1430 425 1476 313 1476 c 256
 185 1476 46 1417 11 1217 c 257
EndSplineSet
EndChar

StartChar: uni0358
Encoding: 856 856 462
Width: 600
VWidth: 0
Flags: HW
PickledData: "(dp1
S'org.robofab.postScriptHintData'
p2
(dp3
s."
AnchorPoint: "top" 241 1060 mark 0
LayerCount: 2
Fore
SplineSet
181 1327 m 257
 374 1327 l 257
 410 1535 l 257
 217 1535 l 257
 181 1327 l 257
EndSplineSet
EndChar

StartChar: uni2015
Encoding: 8213 8213 463
Width: 4096
VWidth: 0
Flags: HW
LayerCount: 2
Fore
SplineSet
119 494 m 257
 145 642 l 257
 3977 642 l 257
 3951 494 l 257
 119 494 l 257
EndSplineSet
EndChar

StartChar: v
Encoding: 118 118 468
Width: 1171
VWidth: 0
Flags: HW
PickledData: "(dp1
S'org.robofab.postScriptHintData'
p2
(dp3
s."
LayerCount: 2
Fore
SplineSet
355 0 m 257
 644 0 l 257
 1198 1074 l 257
 941 1074 l 257
 547 266 l 257
 434 1074 l 257
 163 1074 l 257
 355 0 l 257
EndSplineSet
EndChar

StartChar: w
Encoding: 119 119 469
Width: 1692
VWidth: 0
Flags: HW
PickledData: "(dp1
S'org.robofab.postScriptHintData'
p2
(dp3
s."
AnchorPoint: "top" 951 1074 basechar 0
LayerCount: 2
Fore
SplineSet
270 0 m 257
 528 0 l 257
 888 741 l 257
 977 0 l 257
 1243 0 l 257
 1719 1074 l 257
 1466 1074 l 257
 1149 295 l 257
 1055 1074 l 257
 834 1074 l 257
 473 304 l 257
 417 1074 l 257
 163 1074 l 257
 270 0 l 257
EndSplineSet
EndChar

StartChar: x
Encoding: 120 120 474
Width: 1118
VWidth: 0
Flags: HW
PickledData: "(dp1
S'org.robofab.postScriptHintData'
p2
(dp3
s."
LayerCount: 2
Fore
SplineSet
-41 0 m 257
 248 0 l 257
 532 338 l 257
 698 0 l 257
 969 0 l 257
 702 536 l 257
 1157 1074 l 257
 880 1074 l 257
 597 738 l 257
 434 1074 l 257
 150 1074 l 257
 425 540 l 257
 -41 0 l 257
EndSplineSet
EndChar

StartChar: y
Encoding: 121 121 475
Width: 1120
VWidth: 0
Flags: HW
PickledData: "(dp1
S'org.robofab.postScriptHintData'
p2
(dp3
s."
AnchorPoint: "top" 715 1074 basechar 0
LayerCount: 2
Fore
SplineSet
33 -465 m 257
 379 -435 469 -355 729 140 c 258
 1220 1074 l 257
 950 1074 l 257
 600 353 l 257
 448 1074 l 257
 186 1074 l 257
 407 36 l 257
 303 -198 249 -239 49 -260 c 257
 33 -465 l 257
EndSplineSet
EndChar

StartChar: yen
Encoding: 165 165 479
Width: 1304
VWidth: 0
Flags: HW
PickledData: "(dp1
S'org.robofab.postScriptHintData'
p2
(dp3
s."
LayerCount: 2
Fore
SplineSet
984 533 m 257
 1007 667 l 257
 265 667 l 257
 242 533 l 257
 984 533 l 257
931 231 m 257
 954 365 l 257
 212 365 l 257
 189 231 l 257
 931 231 l 257
EndSplineSet
Refer: 158 89 N 1 0 0 1 0 0 2
EndChar

StartChar: z
Encoding: 122 122 483
Width: 995
VWidth: 0
Flags: HW
PickledData: "(dp1
S'org.robofab.postScriptHintData'
p2
(dp3
s."
AnchorPoint: "bot" 398 0 basechar 0
AnchorPoint: "top" 624 1074 basechar 0
LayerCount: 2
Fore
SplineSet
26 0 m 257
 785 0 l 257
 819 190 l 257
 355 190 l 257
 936 910 l 257
 965 1074 l 257
 219 1074 l 257
 186 888 l 257
 633 888 l 257
 56 167 l 257
 26 0 l 257
EndSplineSet
EndChar

StartChar: zero
Encoding: 48 48 487
Width: 1420
VWidth: 0
Flags: HW
PickledData: "(dp1
S'org.robofab.postScriptHintData'
p2
(dp3
s."
LayerCount: 2
Fore
SplineSet
625 205 m 256
 452 205 401 317 401 428 c 0
 401 452 404 477 408 500 c 258
 491 972 l 258
 514 1102 593 1270 813 1270 c 256
 986 1270 1031 1164 1031 1056 c 0
 1031 1027 1028 999 1023 972 c 258
 940 500 l 258
 917 371 837 205 625 205 c 256
585 -20 m 256
 977 -20 1183 245 1230 509 c 258
 1309 960 l 258
 1316 1000 1320 1040 1320 1079 c 0
 1320 1304 1194 1496 853 1496 c 256
 446 1496 238 1236 190 964 c 258
 109 505 l 258
 103 469 99 434 99 399 c 0
 99 173 237 -20 585 -20 c 256
EndSplineSet
EndChar

